<svg xmlns="http://www.w3.org/2000/svg" xmlns:xlink="http://www.w3.org/1999/xlink" width="500" zoomAndPan="magnify" viewBox="0 0 375 374.999991" height="500" preserveAspectRatio="xMidYMid meet" version="1.0"><defs><g/><clipPath id="747fc21ee4"><path d="M 112.5 78.457031 L 262.5 78.457031 L 262.5 201 L 112.5 201 Z M 112.5 78.457031 " clip-rule="nonzero"/></clipPath></defs><rect x="-37.5" width="450" fill="#ffffff" y="-37.499999" height="449.999989" fill-opacity="1"/><rect x="-37.5" width="450" fill="#ffffff" y="-37.499999" height="449.999989" fill-opacity="1"/><g fill="#000000" fill-opacity="1"><g transform="translate(76.74381, 233.634402)"><g><path d="M 7.820312 -0.0625 C 12.703125 -0.6875 12.390625 -6.882812 12.390625 -10.574219 C 12.390625 -13.390625 12.078125 -17.894531 14.515625 -20.023438 C 16.269531 -21.523438 19.585938 -22.089844 21.585938 -23.339844 C 25.78125 -25.90625 29.785156 -29.847656 29.160156 -35.167969 C 27.96875 -45.054688 16.394531 -46.929688 8.324219 -46.679688 C 1.125 -46.429688 1.816406 -39.796875 1.5 -33.914062 C 1.125 -26.40625 1.3125 -18.898438 0.9375 -11.324219 C 0.75 -7.007812 1.5 0.75 7.820312 -0.0625 Z M 16.082031 -27.59375 C 12.640625 -26.53125 13.203125 -28.347656 13.328125 -31.035156 C 13.390625 -33.789062 12.140625 -40.109375 16.394531 -37.980469 C 18.398438 -36.917969 19.585938 -34.351562 19.460938 -32.164062 C 19.398438 -29.910156 18.269531 -28.28125 16.082031 -27.59375 Z M 16.082031 -27.59375 "/></g></g></g><g fill="#000000" fill-opacity="1"><g transform="translate(105.964922, 233.634402)"><g><path d="M 4.816406 -0.375 C 7.070312 0.3125 9.886719 0.125 11.386719 -1.753906 C 13.015625 -3.753906 12.515625 -8.699219 14.328125 -10.199219 C 15.332031 -10.949219 24.089844 -10.261719 24.402344 -10.011719 C 26.09375 -8.574219 26.40625 -4.566406 27.65625 -2.753906 C 29.410156 -0.1875 31.726562 -0.0625 34.164062 -2.003906 C 36.605469 -4.003906 36.355469 -6.070312 35.355469 -8.824219 L 28.03125 -29.410156 C 26.28125 -34.414062 25.09375 -42.113281 18.523438 -41.988281 C 12.703125 -41.800781 9.824219 -38.296875 8.132812 -33.164062 C 6.132812 -27.09375 4.253906 -20.960938 2.753906 -14.765625 C 1.625 -10.136719 -1.625 -2.253906 4.816406 -0.375 Z M 17.207031 -19.085938 C 17.769531 -20.960938 18.398438 -22.839844 18.960938 -24.714844 C 19.460938 -23.027344 20.023438 -21.398438 20.585938 -19.710938 C 19.460938 -19.523438 18.335938 -19.273438 17.207031 -19.085938 Z M 17.207031 -19.085938 "/></g></g></g><g fill="#000000" fill-opacity="1"><g transform="translate(143.007534, 233.634402)"><g><path d="M 7.820312 -0.0625 C 12.703125 -0.6875 12.390625 -6.882812 12.390625 -10.574219 C 12.390625 -13.390625 12.078125 -17.894531 14.515625 -20.023438 C 16.269531 -21.523438 19.585938 -22.089844 21.585938 -23.339844 C 25.78125 -25.90625 29.785156 -29.847656 29.160156 -35.167969 C 27.96875 -45.054688 16.394531 -46.929688 8.324219 -46.679688 C 1.125 -46.429688 1.816406 -39.796875 1.5 -33.914062 C 1.125 -26.40625 1.3125 -18.898438 0.9375 -11.324219 C 0.75 -7.007812 1.5 0.75 7.820312 -0.0625 Z M 16.082031 -27.59375 C 12.640625 -26.53125 13.203125 -28.347656 13.328125 -31.035156 C 13.390625 -33.789062 12.140625 -40.109375 16.394531 -37.980469 C 18.398438 -36.917969 19.585938 -34.351562 19.460938 -32.164062 C 19.398438 -29.910156 18.269531 -28.28125 16.082031 -27.59375 Z M 16.082031 -27.59375 "/></g></g></g><g fill="#000000" fill-opacity="1"><g transform="translate(172.228646, 233.634402)"><g><path d="M 4.816406 -0.375 C 7.070312 0.3125 9.886719 0.125 11.386719 -1.753906 C 13.015625 -3.753906 12.515625 -8.699219 14.328125 -10.199219 C 15.332031 -10.949219 24.089844 -10.261719 24.402344 -10.011719 C 26.09375 -8.574219 26.40625 -4.566406 27.65625 -2.753906 C 29.410156 -0.1875 31.726562 -0.0625 34.164062 -2.003906 C 36.605469 -4.003906 36.355469 -6.070312 35.355469 -8.824219 L 28.03125 -29.410156 C 26.28125 -34.414062 25.09375 -42.113281 18.523438 -41.988281 C 12.703125 -41.800781 9.824219 -38.296875 8.132812 -33.164062 C 6.132812 -27.09375 4.253906 -20.960938 2.753906 -14.765625 C 1.625 -10.136719 -1.625 -2.253906 4.816406 -0.375 Z M 17.207031 -19.085938 C 17.769531 -20.960938 18.398438 -22.839844 18.960938 -24.714844 C 19.460938 -23.027344 20.023438 -21.398438 20.585938 -19.710938 C 19.460938 -19.523438 18.335938 -19.273438 17.207031 -19.085938 Z M 17.207031 -19.085938 "/></g></g></g><g fill="#000000" fill-opacity="1"><g transform="translate(209.271259, 233.634402)"><g><path d="M 7.820312 -0.0625 C 12.703125 -0.6875 12.390625 -6.882812 12.390625 -10.574219 C 12.390625 -13.390625 12.078125 -17.894531 14.515625 -20.023438 C 16.269531 -21.523438 19.585938 -22.089844 21.585938 -23.339844 C 25.78125 -25.90625 29.785156 -29.847656 29.160156 -35.167969 C 27.96875 -45.054688 16.394531 -46.929688 8.324219 -46.679688 C 1.125 -46.429688 1.816406 -39.796875 1.5 -33.914062 C 1.125 -26.40625 1.3125 -18.898438 0.9375 -11.324219 C 0.75 -7.007812 1.5 0.75 7.820312 -0.0625 Z M 16.082031 -27.59375 C 12.640625 -26.53125 13.203125 -28.347656 13.328125 -31.035156 C 13.390625 -33.789062 12.140625 -40.109375 16.394531 -37.980469 C 18.398438 -36.917969 19.585938 -34.351562 19.460938 -32.164062 C 19.398438 -29.910156 18.269531 -28.28125 16.082031 -27.59375 Z M 16.082031 -27.59375 "/></g></g></g><g fill="#000000" fill-opacity="1"><g transform="translate(238.492371, 233.634402)"><g><path d="M 10.386719 -0.125 C 14.265625 -0.3125 18.144531 -0.25 21.964844 -0.4375 C 25.15625 -0.625 27.53125 -1.0625 28.785156 -4.191406 C 29.535156 -6.257812 29.972656 -10.011719 27.90625 -11.574219 C 25.59375 -13.265625 21.964844 -12.515625 19.335938 -12.640625 C 16.957031 -12.765625 10.824219 -14.703125 14.390625 -18.019531 C 16.519531 -20.023438 19.835938 -17.644531 22.339844 -18.335938 C 25.09375 -19.148438 25.71875 -22.277344 25.40625 -24.839844 C 25.21875 -27.03125 24.464844 -28.28125 22.339844 -29.097656 C 20.273438 -29.847656 15.957031 -28.472656 14.328125 -29.660156 C 12.140625 -31.222656 14.140625 -34.164062 15.707031 -34.476562 C 18.082031 -35.042969 20.648438 -33.414062 23.152344 -34.414062 C 25.34375 -35.292969 26.46875 -37.355469 26.15625 -39.734375 C 25.71875 -43.050781 22.964844 -43.613281 20.085938 -44.050781 C 15.832031 -44.675781 4.566406 -46.804688 2.691406 -41.546875 C 1.878906 -39.296875 2.316406 -36.167969 2.191406 -33.851562 C 2.066406 -29.660156 1.878906 -25.46875 1.691406 -21.273438 C 1.5 -17.707031 1.375 -14.140625 1.1875 -10.574219 C 1.0625 -7.757812 0.25 -3.691406 2.503906 -1.5 C 4.566406 0.5 7.882812 -0.0625 10.386719 -0.125 Z M 10.386719 -0.125 "/></g></g></g><g fill="#000000" fill-opacity="1"><g transform="translate(268.839777, 233.634402)"><g><path d="M 15.519531 0 C 25.53125 -0.1875 20.460938 -24.902344 19.710938 -29.910156 C 22.214844 -29.910156 26.96875 -29.410156 28.660156 -31.597656 C 30.410156 -33.789062 28.847656 -36.792969 26.59375 -37.855469 C 23.277344 -39.421875 18.960938 -38.859375 15.394531 -39.046875 C 12.203125 -39.234375 6.507812 -40.796875 3.628906 -39.484375 C 1.125 -38.359375 0.25 -35.355469 1.4375 -32.976562 C 3.191406 -29.285156 8.007812 -29.785156 11.386719 -29.972656 C 11.636719 -22.902344 10.886719 -16.019531 10.636719 -9.011719 C 10.449219 -5.445312 10.636719 0.0625 15.519531 0 Z M 15.519531 0 "/></g></g></g><g clip-path="url(#747fc21ee4)"><path fill="#070505" d="M 237.859375 169.753906 C 238.425781 169.460938 238.71875 169.332031 238.988281 169.164062 C 239.824219 168.636719 240.730469 168.308594 241.710938 168.175781 C 244.566406 167.777344 247.433594 167.625 250.296875 168.074219 C 252.277344 168.417969 254.144531 169.070312 255.910156 170.03125 C 256.4375 170.324219 256.925781 170.671875 257.375 171.078125 C 257.96875 171.59375 258.507812 172.175781 259.082031 172.710938 C 260.738281 174.246094 261.644531 176.207031 262.246094 178.332031 C 262.410156 178.820312 262.472656 179.324219 262.441406 179.839844 C 262.257812 181.402344 262.117188 182.988281 261.71875 184.503906 C 261.152344 186.65625 259.59375 188.054688 257.621094 188.960938 C 256.460938 189.464844 255.28125 189.507812 254.085938 189.09375 C 253.382812 188.875 252.691406 188.605469 251.957031 188.34375 C 251.820312 188.457031 251.6875 188.574219 251.558594 188.703125 C 249.910156 190.515625 247.808594 191.34375 245.410156 191.527344 C 244.375 191.597656 243.378906 191.441406 242.414062 191.050781 C 241.902344 190.851562 241.390625 190.640625 240.820312 190.414062 C 239.734375 191.242188 238.464844 191.3125 237.144531 191.210938 C 235.039062 191.015625 233.066406 190.386719 231.234375 189.332031 C 230.34375 188.808594 229.578125 188.144531 228.945312 187.328125 C 228.710938 187.046875 228.488281 186.75 228.21875 186.402344 C 227.90625 186.632812 227.613281 186.847656 227.324219 187.0625 C 224.410156 189.242188 221.308594 191.0625 217.820312 192.152344 C 216.097656 192.726562 214.335938 193.097656 212.53125 193.269531 C 209.453125 193.507812 206.429688 193.304688 203.519531 192.136719 C 202.234375 191.621094 200.917969 191.191406 199.570312 190.703125 C 199.40625 191.441406 199.546875 192.078125 199.585938 192.710938 C 199.679688 194.078125 199.453125 195.390625 198.917969 196.648438 C 198.519531 197.546875 197.988281 198.351562 197.320312 199.070312 C 195.53125 201.058594 191.894531 201.457031 189.605469 199.558594 C 187.8125 198.078125 186.65625 196.257812 186.359375 193.925781 C 186.34375 193.792969 186.300781 193.660156 186.246094 193.4375 C 186.035156 193.480469 185.824219 193.542969 185.621094 193.625 C 182.65625 195.191406 179.5 195.972656 176.144531 195.972656 C 175.730469 195.96875 175.308594 195.964844 174.894531 195.996094 C 170.917969 196.28125 167.046875 195.605469 163.199219 194.714844 C 159.105469 193.761719 155.539062 191.742188 152.257812 189.183594 C 151.527344 188.613281 150.847656 187.980469 150.140625 187.378906 C 149.898438 187.171875 149.648438 186.976562 149.34375 186.730469 C 149.09375 187.09375 148.90625 187.398438 148.691406 187.679688 C 146.660156 190.371094 144.078125 192.226562 140.710938 192.820312 C 138.390625 193.230469 137.617188 192.992188 135.824219 192.035156 C 135.636719 192.167969 135.414062 192.316406 135.199219 192.476562 C 133.640625 193.648438 131.890625 194.3125 129.945312 194.460938 C 128.355469 194.597656 126.9375 194.050781 125.605469 193.242188 C 125.25 193.03125 124.917969 192.777344 124.566406 192.535156 C 123.703125 192.691406 122.847656 192.898438 121.980469 192.984375 C 121.335938 193.0625 120.695312 193.042969 120.054688 192.917969 C 116.265625 192.074219 113.886719 189.699219 112.832031 186 C 112.5 184.828125 112.648438 183.601562 112.816406 182.402344 C 113.160156 180.207031 114 178.222656 115.335938 176.445312 C 118.082031 172.640625 121.867188 170.488281 126.371094 169.523438 C 127.824219 169.222656 129.289062 169.011719 130.769531 168.898438 C 133.136719 168.699219 135.492188 168.8125 137.746094 169.703125 C 137.851562 169.71875 137.960938 169.714844 138.066406 169.691406 C 138.097656 169.578125 138.105469 169.464844 138.09375 169.347656 C 137.261719 166.855469 137.109375 164.257812 136.964844 161.664062 C 136.753906 158.515625 136.722656 155.363281 136.867188 152.207031 C 136.9375 150.914062 136.933594 149.609375 136.933594 148.3125 C 136.882812 146.886719 137.152344 145.527344 137.742188 144.230469 C 137.0625 142.980469 136.441406 141.683594 135.683594 140.472656 C 133.777344 137.417969 132.460938 134.121094 131.730469 130.589844 C 131.078125 127.507812 130.433594 124.421875 130.125 121.277344 C 129.953125 119.289062 129.941406 117.296875 130.082031 115.300781 C 130.339844 110.875 131.457031 106.617188 132.570312 102.355469 C 133.308594 99.5625 134.378906 96.90625 135.789062 94.386719 C 136.394531 93.292969 136.933594 92.164062 137.496094 91.046875 C 138.476562 88.988281 139.667969 87.058594 141.066406 85.261719 C 141.269531 85.007812 141.464844 84.746094 141.6875 84.507812 C 141.980469 84.171875 142.335938 83.917969 142.75 83.746094 C 143.164062 83.574219 143.59375 83.503906 144.042969 83.53125 C 145.027344 83.5625 145.964844 83.785156 146.863281 84.191406 C 148.84375 85.109375 150.761719 86.128906 152.425781 87.570312 C 152.773438 87.875 153.121094 88.1875 153.5 88.453125 C 155.519531 89.882812 157.238281 91.628906 158.878906 93.46875 C 160.09375 94.8125 161.191406 96.242188 162.175781 97.765625 C 162.871094 98.859375 163.597656 99.933594 164.328125 101.007812 C 165.523438 102.722656 166.574219 104.523438 167.476562 106.40625 C 168.089844 107.652344 168.777344 108.855469 169.542969 110.015625 C 169.832031 109.902344 170.054688 109.832031 170.257812 109.734375 C 173.921875 108.003906 177.742188 106.773438 181.722656 106.035156 C 183.765625 105.636719 185.804688 105.207031 187.855469 104.835938 C 189.824219 104.484375 191.808594 104.367188 193.808594 104.480469 C 195.195312 104.550781 196.585938 104.621094 197.972656 104.660156 C 199.742188 104.707031 201.476562 104.976562 203.175781 105.46875 C 204.453125 105.839844 205.753906 106.140625 207.082031 106.480469 C 207.265625 106.050781 207.433594 105.675781 207.585938 105.296875 C 208.457031 103.089844 209.511719 100.980469 210.757812 98.964844 C 212.140625 96.765625 213.523438 94.570312 214.96875 92.417969 C 215.71875 91.304688 216.601562 90.285156 217.4375 89.230469 C 218.5 87.886719 219.582031 86.554688 220.644531 85.210938 C 221.476562 84.15625 222.285156 83.082031 223.121094 82.03125 C 223.949219 81.019531 224.890625 80.128906 225.945312 79.363281 C 226.28125 79.117188 226.636719 78.902344 227.003906 78.710938 C 227.492188 78.449219 227.980469 78.4375 228.476562 78.679688 C 229.484375 79.078125 230.34375 79.691406 231.058594 80.511719 C 231.382812 80.902344 231.679688 81.316406 231.953125 81.746094 C 234.5625 85.820312 236.769531 90.074219 238.175781 94.734375 C 239.023438 97.492188 239.554688 100.308594 239.769531 103.183594 C 240.144531 108.558594 240.210938 113.9375 240.125 119.320312 C 240.09375 123.097656 239.542969 126.800781 238.472656 130.425781 C 237.550781 133.480469 236.753906 136.578125 235.929688 139.558594 C 237.609375 143.058594 238.65625 146.738281 239.074219 150.597656 C 239.441406 154.238281 239.691406 157.902344 239.488281 161.570312 C 239.316406 163.796875 238.917969 165.984375 238.296875 168.128906 C 238.179688 168.566406 238.0625 169.003906 237.859375 169.753906 Z M 237.859375 169.753906 " fill-opacity="1" fill-rule="nonzero"/></g><path fill="#f2d5b6" d="M 229.074219 83.328125 C 232.03125 87.59375 234.183594 92.234375 235.535156 97.246094 C 235.976562 98.859375 236.273438 100.5 236.421875 102.164062 C 236.902344 107.902344 237.070312 113.648438 236.917969 119.402344 C 236.855469 122.992188 236.304688 126.507812 235.269531 129.949219 C 234.546875 132.292969 233.9375 134.675781 233.28125 137.039062 C 233.230469 137.21875 233.207031 137.402344 233.152344 137.578125 C 232.65625 139.125 232.941406 140.609375 233.527344 142.054688 C 234.550781 144.597656 235.289062 147.222656 235.746094 149.929688 C 235.832031 150.386719 235.886719 150.847656 235.921875 151.308594 C 236.039062 153.207031 236.109375 155.109375 236.253906 157.003906 C 236.542969 161.128906 236.011719 165.148438 234.65625 169.054688 C 233.980469 171.074219 233.226562 173.066406 232.398438 175.03125 C 231.027344 178.226562 229.082031 181.027344 226.5625 183.425781 C 226.070312 183.914062 225.542969 184.367188 224.988281 184.789062 C 221.394531 187.4375 217.472656 189.386719 213.003906 189.972656 C 210.230469 190.335938 207.457031 190.222656 204.789062 189.183594 C 203.796875 188.800781 202.792969 188.449219 201.792969 188.085938 C 199.652344 187.300781 197.671875 186.195312 195.703125 185.066406 C 195.183594 184.769531 194.699219 184.417969 194.175781 184.074219 C 194.136719 182.640625 194.09375 181.210938 194.050781 179.671875 C 194.285156 179.511719 194.53125 179.371094 194.789062 179.25 C 196.941406 178.394531 198.519531 176.898438 199.730469 174.945312 C 201.082031 172.769531 201.742188 170.390625 202.011719 167.867188 C 202.171875 166.328125 201.585938 165.179688 200.386719 164.253906 C 199.117188 163.304688 197.691406 162.832031 196.109375 162.835938 C 195.085938 162.808594 194.070312 162.871094 193.0625 163.023438 C 190.546875 163.398438 188.035156 163.828125 185.53125 164.28125 C 184.898438 164.410156 184.28125 164.609375 183.6875 164.875 C 180.710938 166.105469 180.199219 169.316406 181.28125 171.496094 C 181.515625 171.949219 181.78125 172.382812 182.074219 172.800781 C 183.667969 175.195312 185.660156 177.152344 188.257812 178.449219 C 189.042969 178.84375 189.808594 179.269531 190.589844 179.6875 C 190.871094 180.578125 191.09375 182.976562 190.804688 183.636719 C 190.324219 184.726562 190.003906 185.898438 189.085938 186.777344 C 188.015625 187.804688 187.003906 188.882812 185.773438 189.734375 C 183.25 191.519531 180.445312 192.503906 177.363281 192.6875 C 174.679688 192.847656 171.988281 193.046875 169.316406 192.59375 C 167.21875 192.234375 165.117188 191.859375 163.058594 191.328125 C 159.6875 190.453125 156.753906 188.675781 154.066406 186.5 C 151.257812 184.207031 148.675781 181.683594 146.320312 178.929688 C 144.605469 176.996094 143.328125 174.808594 142.488281 172.363281 C 141.847656 170.433594 141.269531 168.476562 140.722656 166.515625 C 140.585938 165.835938 140.503906 165.148438 140.476562 164.457031 C 141.042969 164.101562 141.566406 164.417969 142.070312 164.601562 C 145.453125 165.828125 148.90625 166.644531 152.539062 166.320312 C 156.089844 166 159.648438 165.730469 163.085938 164.675781 C 164.28125 164.308594 165.492188 163.984375 166.710938 163.699219 C 171.441406 162.59375 175.773438 160.6875 179.175781 157.101562 C 182.988281 153.085938 184.796875 148.128906 185.734375 142.773438 C 186.976562 135.691406 186.210938 128.726562 184.523438 121.820312 C 183.65625 118.261719 182.832031 114.691406 181.941406 111.136719 C 181.800781 110.566406 181.519531 109.976562 181.9375 109.398438 C 183.058594 109.128906 184.179688 108.855469 185.304688 108.589844 C 188.894531 107.726562 192.527344 107.484375 196.203125 107.871094 C 196.800781 107.933594 197.410156 107.898438 198.007812 107.945312 C 198.976562 108.027344 199.949219 108.082031 200.902344 108.25 C 202.320312 108.488281 203.746094 108.625 205.183594 108.667969 C 205.457031 108.679688 205.730469 108.699219 206.089844 108.71875 C 206.117188 108.957031 206.152344 109.171875 206.167969 109.386719 C 206.257812 110.566406 206.566406 110.9375 207.691406 111.183594 C 207.828125 111.203125 207.96875 111.21875 208.105469 111.226562 C 208.855469 111.402344 209.398438 111.910156 210 112.339844 C 213.511719 114.863281 216.46875 117.972656 219.367188 121.144531 C 219.832031 121.652344 220.304688 122.171875 220.976562 122.4375 C 221.09375 122.492188 221.210938 122.558594 221.316406 122.640625 C 221.472656 122.765625 221.605469 122.914062 221.710938 123.085938 C 222.414062 124.4375 223.054688 125.820312 224.039062 127.003906 C 224.515625 127.582031 225.085938 128.042969 225.75 128.382812 C 227.128906 129.09375 227.949219 128.914062 228.992188 127.679688 C 230.335938 125.5625 230.476562 123.121094 230.734375 120.75 C 231.589844 112.902344 231.058594 105.148438 229.148438 97.488281 C 228.589844 95.082031 227.617188 92.851562 226.242188 90.800781 C 226.527344 88.433594 227.453125 86.230469 228 83.925781 C 228.023438 83.808594 228.074219 83.703125 228.140625 83.609375 C 228.210938 83.515625 228.300781 83.4375 228.402344 83.382812 C 228.503906 83.324219 228.613281 83.289062 228.734375 83.28125 C 228.851562 83.269531 228.964844 83.285156 229.074219 83.328125 Z M 229.074219 83.328125 " fill-opacity="1" fill-rule="nonzero"/><path fill="#d1a87d" d="M 181.9375 109.398438 C 182.34375 111.105469 182.746094 112.8125 183.160156 114.515625 C 183.839844 117.296875 184.5625 120.066406 185.1875 122.859375 C 185.578125 124.613281 185.835938 126.394531 186.140625 128.167969 C 186.324219 129.257812 186.59375 130.351562 186.625 131.445312 C 186.699219 134.039062 186.75 136.640625 186.628906 139.230469 C 186.550781 140.832031 186.125 142.414062 185.886719 144.007812 C 185.585938 145.835938 185.082031 147.609375 184.375 149.324219 C 183.558594 151.503906 182.476562 153.542969 181.132812 155.441406 C 179.609375 157.515625 177.804688 159.316406 175.550781 160.5625 C 173.734375 161.566406 171.820312 162.40625 169.917969 163.246094 C 169.140625 163.550781 168.34375 163.773438 167.523438 163.917969 C 165.714844 164.300781 163.953125 164.855469 162.175781 165.34375 C 160.835938 165.679688 159.480469 165.941406 158.113281 166.132812 C 156.796875 166.347656 155.46875 166.488281 154.144531 166.648438 C 153.777344 166.691406 153.40625 166.707031 153.035156 166.707031 C 151.925781 166.710938 150.8125 166.703125 149.699219 166.707031 C 148.023438 166.710938 146.394531 166.433594 144.8125 165.878906 C 143.378906 165.378906 141.921875 164.929688 140.476562 164.457031 C 140.421875 164.285156 140.378906 164.105469 140.355469 163.921875 C 140.105469 159.898438 139.835938 155.878906 140.117188 151.835938 C 140.269531 149.664062 140.203125 147.480469 140.238281 145.300781 C 140.203125 144.980469 140.21875 144.660156 140.289062 144.34375 C 140.621094 143.484375 140.371094 142.699219 140.066406 141.917969 C 139.914062 141.527344 139.738281 141.148438 139.542969 140.78125 C 139.28125 140.238281 138.992188 139.710938 138.671875 139.199219 C 136.371094 135.734375 135.1875 131.855469 134.433594 127.816406 C 134.132812 126.222656 133.820312 124.628906 133.585938 123.027344 C 132.867188 118.144531 133.242188 113.316406 134.367188 108.53125 C 135.023438 105.496094 135.847656 102.503906 136.835938 99.558594 C 136.960938 99.210938 137.070312 98.855469 137.214844 98.515625 C 138.53125 95.402344 139.824219 92.273438 141.191406 89.183594 C 141.710938 88.003906 142.410156 86.902344 143.054688 85.71875 C 143.972656 85.945312 144.835938 86.304688 145.644531 86.796875 C 147.296875 87.742188 148.855469 88.824219 150.320312 90.042969 C 150.660156 90.355469 151.019531 90.648438 151.390625 90.925781 C 153.535156 92.425781 155.320312 94.308594 157.019531 96.273438 C 157.660156 97.007812 158.253906 97.777344 158.808594 98.578125 C 160.015625 100.335938 161.203125 102.105469 162.34375 103.90625 C 163.082031 105.078125 163.730469 106.3125 164.40625 107.523438 C 164.882812 108.375 165.339844 109.230469 165.796875 110.089844 C 166.152344 110.683594 166.46875 111.304688 166.738281 111.945312 C 166.859375 112.289062 167.050781 112.589844 167.304688 112.851562 C 167.558594 113.109375 167.855469 113.304688 168.195312 113.4375 C 168.535156 113.566406 168.886719 113.621094 169.25 113.597656 C 169.613281 113.574219 169.953125 113.476562 170.273438 113.300781 C 171.089844 112.871094 171.964844 112.550781 172.804688 112.160156 C 175.648438 110.886719 178.601562 109.960938 181.664062 109.386719 C 181.753906 109.378906 181.847656 109.382812 181.9375 109.398438 Z M 181.9375 109.398438 " fill-opacity="1" fill-rule="nonzero"/><path fill="#cfa77c" d="M 127.660156 190.636719 C 128.023438 190.289062 128.363281 189.921875 128.683594 189.535156 C 129.15625 188.910156 129.59375 188.261719 129.996094 187.589844 C 130.148438 187.296875 130.21875 186.988281 130.203125 186.660156 C 130.199219 186.457031 130.148438 186.269531 130.054688 186.09375 C 129.957031 185.914062 129.828125 185.769531 129.660156 185.660156 C 129.496094 185.546875 129.3125 185.480469 129.113281 185.457031 C 128.914062 185.433594 128.71875 185.457031 128.53125 185.53125 C 128.066406 185.734375 127.640625 186.007812 127.261719 186.34375 C 126.875 186.667969 126.566406 187.089844 126.210938 187.453125 C 125.25 188.5 124.082031 189.222656 122.714844 189.613281 C 122.207031 189.730469 121.691406 189.777344 121.171875 189.75 C 120.652344 189.71875 120.148438 189.621094 119.65625 189.445312 C 119.164062 189.273438 118.707031 189.035156 118.28125 188.734375 C 117.859375 188.429688 117.484375 188.074219 117.164062 187.664062 C 115.851562 185.976562 115.675781 184.121094 116.152344 182.136719 C 116.269531 181.59375 116.445312 181.066406 116.675781 180.558594 C 118.128906 177.589844 120.273438 175.316406 123.316406 173.9375 C 125.371094 173.050781 127.511719 172.496094 129.734375 172.261719 C 131.160156 172.058594 132.589844 172.019531 134.023438 172.148438 C 135.316406 172.308594 136.554688 172.660156 137.742188 173.203125 C 138.375 173.476562 138.992188 173.796875 139.699219 174.136719 C 141.113281 178.097656 143.871094 181.21875 146.796875 184.234375 C 146.640625 184.9375 146.324219 185.5625 145.847656 186.105469 C 144.265625 188.035156 142.308594 189.347656 139.800781 189.730469 C 139.160156 189.828125 138.507812 189.921875 137.941406 189.414062 C 138.179688 188.761719 138.421875 188.113281 138.65625 187.460938 C 138.863281 186.910156 138.835938 186.367188 138.570312 185.839844 C 138.5 185.675781 138.402344 185.535156 138.273438 185.414062 C 138.144531 185.292969 137.996094 185.203125 137.828125 185.148438 C 137.660156 185.089844 137.488281 185.070312 137.3125 185.089844 C 137.136719 185.109375 136.972656 185.164062 136.820312 185.253906 C 136.425781 185.496094 136.097656 185.808594 135.835938 186.191406 C 135.605469 186.59375 135.398438 187.003906 135.21875 187.429688 C 134.242188 189.199219 132.902344 190.539062 130.878906 191.054688 C 129.820312 191.324219 128.789062 191.371094 127.660156 190.636719 Z M 127.660156 190.636719 " fill-opacity="1" fill-rule="nonzero"/><path fill="#cfa77c" d="M 238.511719 188.375 C 238.269531 188.40625 238.023438 188.402344 237.777344 188.367188 C 236.542969 187.972656 235.316406 187.5625 234.09375 187.136719 C 233.324219 186.875 232.640625 186.46875 232.039062 185.921875 C 231.4375 185.375 230.964844 184.734375 230.628906 183.992188 C 230.753906 183.773438 230.894531 183.558594 231.042969 183.351562 C 233.097656 180.867188 234.710938 178.121094 235.882812 175.117188 C 236.1875 174.332031 236.605469 173.75 237.386719 173.414062 C 237.847656 173.199219 238.292969 172.953125 238.722656 172.675781 C 240.269531 171.757812 241.941406 171.269531 243.738281 171.207031 C 245.445312 171.121094 247.164062 171.144531 248.875 171.167969 C 250.191406 171.183594 251.398438 171.710938 252.632812 172.105469 C 255.011719 172.867188 256.5625 174.636719 258.042969 176.5 C 258.425781 177.492188 258.824219 178.476562 259.191406 179.476562 C 259.253906 179.703125 259.265625 179.929688 259.21875 180.164062 C 259.085938 181.125 258.925781 182.085938 258.777344 183.046875 C 258.578125 184.351562 257.757812 185.199219 256.6875 185.839844 C 256.230469 186.140625 255.742188 186.21875 255.21875 186.066406 C 253.742188 185.617188 252.304688 185.117188 251.386719 183.738281 C 251.167969 183.4375 250.910156 183.175781 250.609375 182.953125 C 250.230469 182.644531 249.792969 182.519531 249.308594 182.574219 C 248.992188 182.589844 248.726562 182.710938 248.503906 182.9375 C 248.285156 183.164062 248.171875 183.4375 248.167969 183.75 C 248.144531 184.277344 248.273438 184.761719 248.542969 185.210938 C 248.746094 185.574219 248.976562 185.921875 249.214844 186.3125 C 249.117188 186.519531 248.988281 186.707031 248.835938 186.875 C 247.128906 188.25 245.261719 188.757812 243.144531 187.894531 C 242.496094 187.613281 241.941406 187.207031 241.476562 186.675781 C 241.132812 186.300781 240.808594 185.898438 240.433594 185.558594 C 239.773438 184.960938 238.949219 184.867188 238.40625 185.273438 C 237.851562 185.691406 237.664062 186.507812 237.96875 187.300781 C 238.101562 187.640625 238.300781 187.957031 238.511719 188.375 Z M 238.511719 188.375 " fill-opacity="1" fill-rule="nonzero"/><path fill="#cea77c" d="M 221.132812 122.726562 C 220.679688 122.789062 220.3125 122.636719 220.027344 122.28125 C 218.875 121.023438 217.609375 119.878906 216.503906 118.566406 C 215.488281 117.429688 214.394531 116.375 213.222656 115.402344 C 212.222656 114.519531 211.152344 113.714844 210.105469 112.882812 C 209.675781 112.539062 209.226562 112.21875 208.796875 111.867188 C 208.554688 111.671875 208.335938 111.441406 208.105469 111.226562 C 208.832031 110.824219 209.300781 110.226562 209.515625 109.425781 C 210.90625 105.0625 213.109375 101.109375 215.609375 97.296875 C 217.289062 94.734375 219.015625 92.222656 221.089844 89.957031 C 221.816406 89.113281 222.492188 88.230469 223.117188 87.3125 C 224.398438 85.546875 225.773438 83.859375 227.25 82.253906 C 227.410156 82.058594 227.554688 81.851562 227.691406 81.640625 C 228.261719 82.109375 228.726562 82.671875 229.074219 83.328125 C 228.84375 83.371094 228.644531 83.480469 228.480469 83.65625 C 228.320312 83.828125 228.222656 84.03125 228.195312 84.269531 C 227.859375 86.488281 227.035156 88.570312 226.449219 90.714844 C 226.074219 91.125 225.488281 91.039062 225.054688 91.3125 C 224.34375 91.613281 223.816406 92.113281 223.472656 92.808594 C 221.746094 96.011719 220.488281 99.390625 219.699219 102.941406 C 218.914062 106.496094 218.625 110.089844 218.835938 113.726562 C 218.980469 116.261719 219.867188 118.710938 220.890625 121.0625 C 221.117188 121.585938 221.605469 122.09375 221.132812 122.726562 Z M 221.132812 122.726562 " fill-opacity="1" fill-rule="nonzero"/><path fill="#f7b0aa" d="M 188.699219 191.65625 C 189.402344 190.992188 190.070312 190.355469 190.746094 189.730469 C 190.804688 189.675781 190.914062 189.671875 191.027344 189.636719 C 191.25 190.371094 191.449219 191.117188 191.707031 191.84375 C 191.882812 192.320312 192.105469 192.777344 192.371094 193.210938 C 192.480469 193.382812 192.640625 193.460938 192.847656 193.445312 C 193.054688 193.425781 193.195312 193.320312 193.277344 193.128906 C 193.449219 192.703125 193.59375 192.265625 193.703125 191.816406 C 193.933594 190.910156 194.007812 189.992188 193.925781 189.0625 C 193.902344 188.707031 193.921875 188.351562 193.921875 187.90625 C 194.65625 188.140625 195.195312 188.578125 195.8125 188.839844 C 196.136719 190.390625 196.429688 191.890625 196.386719 193.421875 C 196.382812 194.683594 195.957031 195.78125 195.109375 196.710938 C 194.898438 196.964844 194.648438 197.167969 194.359375 197.320312 C 194.070312 197.472656 193.761719 197.566406 193.433594 197.597656 C 193.109375 197.628906 192.789062 197.597656 192.472656 197.5 C 192.160156 197.40625 191.875 197.253906 191.621094 197.042969 C 191.003906 196.609375 190.519531 196.058594 190.171875 195.386719 C 189.601562 194.175781 189.113281 192.929688 188.699219 191.65625 Z M 188.699219 191.65625 " fill-opacity="1" fill-rule="nonzero"/><path fill="#040302" d="M 221.132812 122.726562 C 221.0625 122.464844 220.972656 122.207031 220.871094 121.953125 C 219.832031 119.769531 219.195312 117.457031 218.648438 115.109375 C 218.355469 113.792969 218.238281 112.460938 218.300781 111.113281 C 218.382812 108.519531 218.710938 105.953125 219.292969 103.421875 C 219.578125 102.207031 219.859375 100.992188 220.160156 99.78125 C 220.839844 97.066406 222.164062 94.621094 223.425781 92.152344 C 223.777344 91.464844 224.371094 91.175781 225.058594 90.996094 C 226.277344 91.054688 226.722656 91.460938 226.820312 92.730469 C 226.929688 94.171875 226.644531 95.59375 226.449219 97.011719 C 226.019531 100.175781 225.667969 103.355469 225.53125 106.539062 C 225.351562 110.652344 226.398438 114.621094 227.5 118.546875 C 228.128906 120.777344 228.710938 123.015625 229.1875 125.28125 C 229.433594 126.199219 229.410156 127.113281 229.109375 128.015625 C 228.410156 129.21875 227.570312 129.527344 226.246094 129.007812 C 225.269531 128.652344 224.460938 128.066406 223.824219 127.246094 C 223 126.140625 222.175781 125.035156 221.707031 123.714844 C 221.597656 123.460938 221.46875 123.21875 221.324219 122.984375 C 221.324219 122.871094 221.269531 122.800781 221.15625 122.773438 Z M 221.132812 122.726562 " fill-opacity="1" fill-rule="nonzero"/><path fill="#040302" d="M 213.15625 156.667969 C 209.546875 156.5625 205.957031 153.773438 206.03125 149.292969 C 206.042969 148.816406 206.097656 148.347656 206.203125 147.878906 C 206.304688 147.414062 206.449219 146.964844 206.640625 146.527344 C 206.835938 146.089844 207.066406 145.679688 207.339844 145.289062 C 207.613281 144.898438 207.921875 144.539062 208.265625 144.207031 C 208.609375 143.878906 208.980469 143.585938 209.382812 143.332031 C 209.785156 143.074219 210.207031 142.863281 210.652344 142.691406 C 211.09375 142.519531 211.550781 142.390625 212.019531 142.308594 C 212.488281 142.230469 212.960938 142.195312 213.4375 142.207031 C 217.054688 142.277344 220.539062 145.117188 220.480469 149.496094 C 220.417969 154.035156 216.761719 156.691406 213.15625 156.667969 Z M 213.15625 156.667969 " fill-opacity="1" fill-rule="nonzero"/><path fill="#fbb4ad" d="M 229.109375 128.015625 C 229.070312 126.625 228.863281 125.253906 228.492188 123.910156 C 227.964844 121.949219 227.40625 119.992188 226.902344 118.023438 C 226.183594 115.199219 225.484375 112.367188 225.21875 109.460938 C 225.105469 108.351562 225.085938 107.246094 225.164062 106.132812 C 225.402344 103.136719 225.714844 100.148438 226.015625 97.15625 C 226.144531 95.914062 226.320312 94.675781 226.472656 93.4375 C 226.652344 91.960938 226.46875 91.640625 225.058594 90.996094 C 225.449219 90.539062 225.980469 90.789062 226.449219 90.714844 C 227.984375 92.402344 228.824219 94.421875 229.296875 96.625 C 229.820312 99.050781 230.386719 101.46875 230.855469 103.90625 C 231.066406 104.984375 231.03125 106.105469 231.195312 107.195312 C 231.734375 110.742188 231.347656 114.304688 231.445312 117.859375 C 231.460938 118.402344 231.242188 118.945312 231.226562 119.492188 C 231.199219 120.464844 231.035156 121.414062 230.929688 122.375 C 230.769531 123.796875 230.472656 125.1875 230.039062 126.550781 C 229.863281 127.097656 229.742188 127.734375 229.109375 128.015625 Z M 229.109375 128.015625 " fill-opacity="1" fill-rule="nonzero"/><path fill="#cea77c" d="M 221.15625 122.773438 C 221.214844 122.84375 221.269531 122.914062 221.324219 122.984375 C 221.269531 122.914062 221.214844 122.84375 221.15625 122.773438 Z M 221.15625 122.773438 " fill-opacity="1" fill-rule="nonzero"/><path fill="#040303" d="M 146.410156 97.160156 C 146.449219 97.132812 146.480469 97.101562 146.511719 97.066406 C 147.378906 95.789062 148.171875 95.621094 149.382812 96.46875 C 150.25 97.105469 150.988281 97.867188 151.601562 98.753906 C 153.289062 101.054688 154.589844 103.539062 155.242188 106.34375 C 155.566406 107.742188 155.988281 109.117188 156.375 110.5 C 156.910156 112.378906 157.230469 114.296875 157.339844 116.25 C 157.503906 118.675781 157.003906 120.957031 155.839844 123.089844 C 154.355469 125.734375 152.222656 127.765625 149.679688 129.378906 C 149.128906 129.75 148.523438 129.960938 147.863281 130.015625 C 147.09375 130.066406 146.386719 129.984375 145.8125 129.414062 C 145.113281 129.074219 145.179688 128.46875 145.296875 127.863281 C 145.398438 127.398438 145.601562 126.988281 145.90625 126.628906 C 148.46875 123.511719 148.917969 119.78125 149.035156 115.945312 C 149.210938 110.105469 148.433594 104.425781 146.304688 98.960938 C 146.074219 98.367188 145.816406 97.726562 146.410156 97.160156 Z M 146.410156 97.160156 " fill-opacity="1" fill-rule="nonzero"/><path fill="#fcb4ad" d="M 146.410156 97.160156 C 146.332031 97.925781 146.585938 98.617188 146.84375 99.316406 C 147.453125 100.964844 148.097656 102.601562 148.429688 104.339844 C 149.25 108.625 149.792969 112.933594 149.457031 117.3125 C 149.285156 119.394531 148.890625 121.4375 148.28125 123.433594 C 148.058594 124.199219 147.703125 124.898438 147.214844 125.527344 C 146.847656 126.003906 146.492188 126.488281 146.121094 126.960938 C 145.53125 127.71875 145.339844 128.523438 145.8125 129.414062 C 145.652344 129.464844 145.40625 129.601562 145.351562 129.546875 C 144.96875 129.214844 144.640625 128.835938 144.363281 128.414062 C 143.433594 126.792969 142.925781 125.007812 142.496094 123.210938 C 142.140625 121.738281 141.9375 120.226562 141.683594 118.730469 C 141.644531 118.40625 141.632812 118.085938 141.644531 117.761719 C 141.636719 116.136719 141.664062 114.515625 141.625 112.894531 C 141.628906 111.460938 141.789062 110.042969 142.101562 108.644531 C 142.355469 107.335938 142.5 106.003906 142.773438 104.695312 C 143.15625 102.84375 143.527344 100.972656 144.453125 99.296875 C 144.910156 98.546875 145.40625 97.832031 145.953125 97.144531 C 146.082031 96.964844 146.261719 96.988281 146.410156 97.160156 Z M 146.410156 97.160156 " fill-opacity="1" fill-rule="nonzero"/><path fill="#030202" d="M 160.484375 150.980469 C 160.480469 150.515625 160.523438 150.054688 160.609375 149.597656 C 160.699219 149.140625 160.828125 148.699219 161.003906 148.269531 C 161.175781 147.839844 161.390625 147.429688 161.644531 147.042969 C 161.902344 146.652344 162.191406 146.292969 162.515625 145.964844 C 162.84375 145.632812 163.199219 145.339844 163.582031 145.078125 C 163.964844 144.816406 164.371094 144.597656 164.800781 144.417969 C 165.226562 144.238281 165.667969 144.101562 166.121094 144.007812 C 166.574219 143.914062 167.035156 143.867188 167.5 143.867188 C 170.761719 143.800781 174.648438 146.316406 174.640625 151.003906 C 174.636719 151.46875 174.589844 151.929688 174.496094 152.382812 C 174.402344 152.835938 174.265625 153.277344 174.085938 153.707031 C 173.90625 154.132812 173.6875 154.539062 173.429688 154.925781 C 173.167969 155.308594 172.875 155.664062 172.546875 155.992188 C 172.21875 156.320312 171.859375 156.609375 171.472656 156.867188 C 171.085938 157.125 170.679688 157.339844 170.25 157.515625 C 169.824219 157.691406 169.382812 157.824219 168.925781 157.914062 C 168.472656 158.003906 168.011719 158.050781 167.550781 158.046875 C 167.085938 158.046875 166.628906 158 166.171875 157.910156 C 165.71875 157.820312 165.277344 157.683594 164.851562 157.507812 C 164.421875 157.328125 164.015625 157.109375 163.628906 156.851562 C 163.246094 156.59375 162.886719 156.300781 162.558594 155.972656 C 162.234375 155.644531 161.941406 155.289062 161.683594 154.902344 C 161.425781 154.519531 161.207031 154.109375 161.027344 153.683594 C 160.851562 153.253906 160.714844 152.8125 160.625 152.359375 C 160.535156 151.902344 160.488281 151.441406 160.484375 150.980469 Z M 160.484375 150.980469 " fill-opacity="1" fill-rule="nonzero"/><g fill="#6d5133" fill-opacity="1"><g transform="translate(92.880196, 255.465804)"><g><path d="M 6.578125 -7.328125 C 7.347656 -7.328125 8.007812 -7.300781 8.5625 -7.25 C 9.125 -7.195312 9.570312 -7.148438 9.90625 -7.109375 C 9.832031 -7.304688 9.769531 -7.484375 9.71875 -7.640625 C 9.664062 -7.804688 9.617188 -7.945312 9.578125 -8.0625 C 9.492188 -8.40625 9.375 -8.820312 9.21875 -9.3125 C 9.0625 -9.8125 8.882812 -10.332031 8.6875 -10.875 C 8.5 -11.425781 8.300781 -11.976562 8.09375 -12.53125 C 7.894531 -13.082031 7.703125 -13.585938 7.515625 -14.046875 C 7.304688 -13.585938 7.082031 -13.082031 6.84375 -12.53125 C 6.601562 -11.976562 6.375 -11.425781 6.15625 -10.875 C 5.9375 -10.332031 5.726562 -9.804688 5.53125 -9.296875 C 5.34375 -8.796875 5.191406 -8.375 5.078125 -8.03125 C 5.046875 -7.914062 5.003906 -7.796875 4.953125 -7.671875 C 4.898438 -7.554688 4.847656 -7.421875 4.796875 -7.265625 C 5.367188 -7.304688 5.960938 -7.328125 6.578125 -7.328125 Z M 10.75 -8.375 C 10.8125 -8.101562 10.929688 -7.71875 11.109375 -7.21875 C 11.296875 -6.71875 11.492188 -6.171875 11.703125 -5.578125 C 11.921875 -4.984375 12.144531 -4.378906 12.375 -3.765625 C 12.613281 -3.148438 12.828125 -2.585938 13.015625 -2.078125 C 13.203125 -1.566406 13.359375 -1.148438 13.484375 -0.828125 C 13.617188 -0.503906 13.6875 -0.335938 13.6875 -0.328125 C 13.71875 -0.265625 13.734375 -0.191406 13.734375 -0.109375 C 13.734375 0.160156 13.601562 0.347656 13.34375 0.453125 C 13.300781 0.484375 13.226562 0.5 13.125 0.5 C 13.007812 0.5 12.898438 0.460938 12.796875 0.390625 C 12.691406 0.328125 12.613281 0.234375 12.5625 0.109375 C 12.550781 0.0664062 12.46875 -0.148438 12.3125 -0.546875 C 12.15625 -0.941406 11.960938 -1.425781 11.734375 -2 C 11.515625 -2.570312 11.269531 -3.195312 11 -3.875 C 10.726562 -4.5625 10.460938 -5.210938 10.203125 -5.828125 C 9.921875 -5.867188 9.59375 -5.914062 9.21875 -5.96875 C 8.90625 -6 8.519531 -6.03125 8.0625 -6.0625 C 7.613281 -6.101562 7.117188 -6.125 6.578125 -6.125 C 6.203125 -6.125 5.816406 -6.113281 5.421875 -6.09375 C 5.023438 -6.070312 4.644531 -6.046875 4.28125 -6.015625 C 4.019531 -5.398438 3.738281 -4.738281 3.4375 -4.03125 C 3.132812 -3.332031 2.847656 -2.679688 2.578125 -2.078125 C 2.304688 -1.484375 2.078125 -0.972656 1.890625 -0.546875 C 1.703125 -0.117188 1.601562 0.113281 1.59375 0.15625 C 1.476562 0.382812 1.289062 0.5 1.03125 0.5 C 0.925781 0.5 0.847656 0.484375 0.796875 0.453125 C 0.554688 0.335938 0.4375 0.148438 0.4375 -0.109375 C 0.4375 -0.179688 0.457031 -0.257812 0.5 -0.34375 C 0.5 -0.351562 0.578125 -0.535156 0.734375 -0.890625 C 0.890625 -1.242188 1.082031 -1.6875 1.3125 -2.21875 C 1.550781 -2.757812 1.8125 -3.351562 2.09375 -4 C 2.382812 -4.65625 2.660156 -5.285156 2.921875 -5.890625 C 2.523438 -5.847656 2.195312 -5.804688 1.9375 -5.765625 C 1.675781 -5.734375 1.523438 -5.71875 1.484375 -5.71875 C 1.328125 -5.71875 1.191406 -5.765625 1.078125 -5.859375 C 0.972656 -5.960938 0.90625 -6.113281 0.875 -6.3125 C 0.875 -6.46875 0.921875 -6.597656 1.015625 -6.703125 C 1.109375 -6.816406 1.234375 -6.890625 1.390625 -6.921875 C 1.421875 -6.921875 1.625 -6.941406 2 -6.984375 C 2.382812 -7.035156 2.863281 -7.09375 3.4375 -7.15625 C 3.550781 -7.414062 3.644531 -7.648438 3.71875 -7.859375 C 3.800781 -8.078125 3.875 -8.265625 3.9375 -8.421875 C 4.0625 -8.804688 4.25 -9.316406 4.5 -9.953125 C 4.75 -10.597656 5.015625 -11.265625 5.296875 -11.953125 C 5.585938 -12.648438 5.878906 -13.320312 6.171875 -13.96875 C 6.472656 -14.625 6.726562 -15.164062 6.9375 -15.59375 C 6.96875 -15.820312 7.082031 -15.988281 7.28125 -16.09375 C 7.34375 -16.125 7.4375 -16.140625 7.5625 -16.140625 C 7.675781 -16.140625 7.773438 -16.117188 7.859375 -16.078125 C 8.046875 -15.972656 8.15625 -15.804688 8.1875 -15.578125 C 8.375 -15.148438 8.59375 -14.601562 8.84375 -13.9375 C 9.09375 -13.28125 9.34375 -12.601562 9.59375 -11.90625 C 9.84375 -11.21875 10.066406 -10.550781 10.265625 -9.90625 C 10.472656 -9.269531 10.632812 -8.757812 10.75 -8.375 Z M 10.75 -8.375 "/></g></g></g><g fill="#6d5133" fill-opacity="1"><g transform="translate(107.057365, 255.465804)"><g><path d="M 7.03125 -1.203125 C 7.125 -1.265625 7.238281 -1.296875 7.375 -1.296875 C 7.582031 -1.296875 7.742188 -1.207031 7.859375 -1.03125 C 7.929688 -0.914062 7.96875 -0.800781 7.96875 -0.6875 C 7.96875 -0.5 7.875 -0.332031 7.6875 -0.1875 L 7.546875 -0.09375 C 7.429688 -0.0195312 7.28125 0.0507812 7.09375 0.125 C 6.90625 0.195312 6.691406 0.265625 6.453125 0.328125 C 6.222656 0.398438 5.96875 0.4375 5.6875 0.4375 C 5.34375 0.4375 4.925781 0.332031 4.4375 0.125 C 3.957031 -0.0820312 3.484375 -0.429688 3.015625 -0.921875 C 2.554688 -1.421875 2.144531 -2.078125 1.78125 -2.890625 C 1.425781 -3.703125 1.207031 -4.703125 1.125 -5.890625 C 1.101562 -5.972656 1.09375 -6.050781 1.09375 -6.125 C 1.09375 -6.207031 1.09375 -6.289062 1.09375 -6.375 C 1.09375 -7.3125 1.257812 -8.148438 1.59375 -8.890625 C 1.9375 -9.640625 2.34375 -10.273438 2.8125 -10.796875 C 3.289062 -11.316406 3.78125 -11.722656 4.28125 -12.015625 C 4.789062 -12.316406 5.226562 -12.476562 5.59375 -12.5 C 5.65625 -12.519531 5.726562 -12.53125 5.8125 -12.53125 C 5.894531 -12.53125 5.96875 -12.53125 6.03125 -12.53125 C 6.445312 -12.53125 6.804688 -12.488281 7.109375 -12.40625 C 7.421875 -12.332031 7.632812 -12.265625 7.75 -12.203125 C 7.914062 -12.171875 8.082031 -12.054688 8.25 -11.859375 C 8.425781 -11.671875 8.515625 -11.304688 8.515625 -10.765625 C 8.515625 -10.585938 8.453125 -10.441406 8.328125 -10.328125 C 8.203125 -10.210938 8.0625 -10.15625 7.90625 -10.15625 C 7.738281 -10.15625 7.597656 -10.210938 7.484375 -10.328125 C 7.367188 -10.441406 7.3125 -10.585938 7.3125 -10.765625 C 7.3125 -10.878906 7.296875 -10.992188 7.265625 -11.109375 C 7.179688 -11.140625 7.03125 -11.179688 6.8125 -11.234375 C 6.59375 -11.296875 6.332031 -11.328125 6.03125 -11.328125 C 5.976562 -11.328125 5.925781 -11.328125 5.875 -11.328125 C 5.820312 -11.328125 5.757812 -11.316406 5.6875 -11.296875 C 5.457031 -11.273438 5.15625 -11.148438 4.78125 -10.921875 C 4.40625 -10.691406 4.03125 -10.363281 3.65625 -9.9375 C 3.289062 -9.507812 2.972656 -8.992188 2.703125 -8.390625 C 2.429688 -7.796875 2.296875 -7.117188 2.296875 -6.359375 C 2.296875 -6.285156 2.296875 -6.21875 2.296875 -6.15625 C 2.296875 -6.101562 2.304688 -6.039062 2.328125 -5.96875 C 2.378906 -5 2.539062 -4.179688 2.8125 -3.515625 C 3.082031 -2.859375 3.394531 -2.328125 3.75 -1.921875 C 4.101562 -1.515625 4.453125 -1.222656 4.796875 -1.046875 C 5.148438 -0.867188 5.445312 -0.78125 5.6875 -0.78125 C 5.863281 -0.78125 6.03125 -0.800781 6.1875 -0.84375 C 6.34375 -0.882812 6.484375 -0.925781 6.609375 -0.96875 C 6.742188 -1.019531 6.847656 -1.078125 6.921875 -1.140625 Z M 7.03125 -1.203125 "/></g></g></g><g fill="#6d5133" fill-opacity="1"><g transform="translate(116.10068, 255.465804)"><g><path d="M 7.03125 -1.203125 C 7.125 -1.265625 7.238281 -1.296875 7.375 -1.296875 C 7.582031 -1.296875 7.742188 -1.207031 7.859375 -1.03125 C 7.929688 -0.914062 7.96875 -0.800781 7.96875 -0.6875 C 7.96875 -0.5 7.875 -0.332031 7.6875 -0.1875 L 7.546875 -0.09375 C 7.429688 -0.0195312 7.28125 0.0507812 7.09375 0.125 C 6.90625 0.195312 6.691406 0.265625 6.453125 0.328125 C 6.222656 0.398438 5.96875 0.4375 5.6875 0.4375 C 5.34375 0.4375 4.925781 0.332031 4.4375 0.125 C 3.957031 -0.0820312 3.484375 -0.429688 3.015625 -0.921875 C 2.554688 -1.421875 2.144531 -2.078125 1.78125 -2.890625 C 1.425781 -3.703125 1.207031 -4.703125 1.125 -5.890625 C 1.101562 -5.972656 1.09375 -6.050781 1.09375 -6.125 C 1.09375 -6.207031 1.09375 -6.289062 1.09375 -6.375 C 1.09375 -7.3125 1.257812 -8.148438 1.59375 -8.890625 C 1.9375 -9.640625 2.34375 -10.273438 2.8125 -10.796875 C 3.289062 -11.316406 3.78125 -11.722656 4.28125 -12.015625 C 4.789062 -12.316406 5.226562 -12.476562 5.59375 -12.5 C 5.65625 -12.519531 5.726562 -12.53125 5.8125 -12.53125 C 5.894531 -12.53125 5.96875 -12.53125 6.03125 -12.53125 C 6.445312 -12.53125 6.804688 -12.488281 7.109375 -12.40625 C 7.421875 -12.332031 7.632812 -12.265625 7.75 -12.203125 C 7.914062 -12.171875 8.082031 -12.054688 8.25 -11.859375 C 8.425781 -11.671875 8.515625 -11.304688 8.515625 -10.765625 C 8.515625 -10.585938 8.453125 -10.441406 8.328125 -10.328125 C 8.203125 -10.210938 8.0625 -10.15625 7.90625 -10.15625 C 7.738281 -10.15625 7.597656 -10.210938 7.484375 -10.328125 C 7.367188 -10.441406 7.3125 -10.585938 7.3125 -10.765625 C 7.3125 -10.878906 7.296875 -10.992188 7.265625 -11.109375 C 7.179688 -11.140625 7.03125 -11.179688 6.8125 -11.234375 C 6.59375 -11.296875 6.332031 -11.328125 6.03125 -11.328125 C 5.976562 -11.328125 5.925781 -11.328125 5.875 -11.328125 C 5.820312 -11.328125 5.757812 -11.316406 5.6875 -11.296875 C 5.457031 -11.273438 5.15625 -11.148438 4.78125 -10.921875 C 4.40625 -10.691406 4.03125 -10.363281 3.65625 -9.9375 C 3.289062 -9.507812 2.972656 -8.992188 2.703125 -8.390625 C 2.429688 -7.796875 2.296875 -7.117188 2.296875 -6.359375 C 2.296875 -6.285156 2.296875 -6.21875 2.296875 -6.15625 C 2.296875 -6.101562 2.304688 -6.039062 2.328125 -5.96875 C 2.378906 -5 2.539062 -4.179688 2.8125 -3.515625 C 3.082031 -2.859375 3.394531 -2.328125 3.75 -1.921875 C 4.101562 -1.515625 4.453125 -1.222656 4.796875 -1.046875 C 5.148438 -0.867188 5.445312 -0.78125 5.6875 -0.78125 C 5.863281 -0.78125 6.03125 -0.800781 6.1875 -0.84375 C 6.34375 -0.882812 6.484375 -0.925781 6.609375 -0.96875 C 6.742188 -1.019531 6.847656 -1.078125 6.921875 -1.140625 Z M 7.03125 -1.203125 "/></g></g></g><g fill="#6d5133" fill-opacity="1"><g transform="translate(125.143995, 255.465804)"><g><path d="M 5.96875 -10.828125 C 5.84375 -10.828125 5.585938 -10.757812 5.203125 -10.625 C 4.828125 -10.488281 4.4375 -10.242188 4.03125 -9.890625 C 3.625 -9.546875 3.242188 -9.0625 2.890625 -8.4375 C 2.535156 -7.8125 2.316406 -7.007812 2.234375 -6.03125 C 2.472656 -6.09375 2.75 -6.160156 3.0625 -6.234375 C 3.375 -6.304688 3.679688 -6.375 3.984375 -6.4375 C 4.296875 -6.5 4.585938 -6.550781 4.859375 -6.59375 C 5.140625 -6.632812 5.367188 -6.65625 5.546875 -6.65625 C 5.742188 -6.65625 5.992188 -6.703125 6.296875 -6.796875 C 6.609375 -6.890625 6.914062 -6.988281 7.21875 -7.09375 C 7.457031 -7.175781 7.6875 -7.25 7.90625 -7.3125 C 8.125 -7.375 8.332031 -7.4375 8.53125 -7.5 C 8.46875 -8.070312 8.34375 -8.566406 8.15625 -8.984375 C 7.976562 -9.398438 7.765625 -9.742188 7.515625 -10.015625 C 7.273438 -10.285156 7.019531 -10.488281 6.75 -10.625 C 6.476562 -10.757812 6.21875 -10.828125 5.96875 -10.828125 Z M 10.03125 -0.984375 C 10.1875 -0.984375 10.316406 -0.929688 10.421875 -0.828125 C 10.535156 -0.734375 10.609375 -0.585938 10.640625 -0.390625 C 10.640625 -0.234375 10.59375 -0.101562 10.5 0 C 10.40625 0.113281 10.28125 0.1875 10.125 0.21875 C 10.09375 0.21875 9.960938 0.234375 9.734375 0.265625 C 9.503906 0.304688 9.226562 0.347656 8.90625 0.390625 C 8.59375 0.429688 8.265625 0.460938 7.921875 0.484375 C 7.578125 0.515625 7.285156 0.53125 7.046875 0.53125 C 5.140625 0.53125 3.675781 0.0234375 2.65625 -0.984375 C 1.644531 -1.992188 1.085938 -3.414062 0.984375 -5.25 C 0.960938 -6.175781 1.046875 -6.988281 1.234375 -7.6875 C 1.429688 -8.394531 1.691406 -9 2.015625 -9.5 C 2.335938 -10 2.695312 -10.410156 3.09375 -10.734375 C 3.5 -11.066406 3.890625 -11.328125 4.265625 -11.515625 C 4.640625 -11.703125 4.984375 -11.832031 5.296875 -11.90625 C 5.609375 -11.988281 5.832031 -12.03125 5.96875 -12.03125 C 6.34375 -12.03125 6.738281 -11.9375 7.15625 -11.75 C 7.582031 -11.5625 7.976562 -11.273438 8.34375 -10.890625 C 8.707031 -10.515625 9.019531 -10.035156 9.28125 -9.453125 C 9.539062 -8.867188 9.695312 -8.175781 9.75 -7.375 C 9.84375 -7.257812 9.890625 -7.128906 9.890625 -6.984375 C 9.890625 -6.835938 9.84375 -6.71875 9.75 -6.625 C 9.675781 -6.332031 9.484375 -6.1875 9.171875 -6.1875 C 9.023438 -6.1875 8.90625 -6.226562 8.8125 -6.3125 C 8.425781 -6.226562 8.023438 -6.109375 7.609375 -5.953125 C 7.234375 -5.828125 6.863281 -5.710938 6.5 -5.609375 C 6.144531 -5.503906 5.828125 -5.453125 5.546875 -5.453125 C 5.390625 -5.453125 5.175781 -5.429688 4.90625 -5.390625 C 4.644531 -5.347656 4.351562 -5.289062 4.03125 -5.21875 C 3.71875 -5.144531 3.398438 -5.066406 3.078125 -4.984375 C 2.753906 -4.910156 2.46875 -4.835938 2.21875 -4.765625 C 2.269531 -3.878906 2.472656 -3.164062 2.828125 -2.625 C 3.179688 -2.09375 3.597656 -1.679688 4.078125 -1.390625 C 4.554688 -1.097656 5.0625 -0.90625 5.59375 -0.8125 C 6.132812 -0.71875 6.617188 -0.671875 7.046875 -0.671875 C 7.273438 -0.671875 7.550781 -0.679688 7.875 -0.703125 C 8.207031 -0.734375 8.523438 -0.769531 8.828125 -0.8125 C 9.128906 -0.851562 9.394531 -0.890625 9.625 -0.921875 L 9.953125 -0.96875 Z M 10.03125 -0.984375 "/></g></g></g><g fill="#6d5133" fill-opacity="1"><g transform="translate(135.991678, 255.465804)"><g><path d="M 6.71875 -7.34375 C 9.257812 -6.113281 10.53125 -4.816406 10.53125 -3.453125 C 10.53125 -3.046875 10.4375 -2.640625 10.25 -2.234375 C 10.0625 -1.835938 9.835938 -1.46875 9.578125 -1.125 C 9.328125 -0.789062 9.0625 -0.5 8.78125 -0.25 C 8.5 0 8.265625 0.175781 8.078125 0.28125 C 7.910156 0.382812 7.6875 0.476562 7.40625 0.5625 C 7.125 0.65625 6.835938 0.738281 6.546875 0.8125 C 6.253906 0.882812 5.972656 0.941406 5.703125 0.984375 C 5.441406 1.023438 5.222656 1.046875 5.046875 1.046875 C 4.671875 1.046875 4.269531 0.984375 3.84375 0.859375 C 3.425781 0.742188 3.023438 0.546875 2.640625 0.265625 C 2.253906 -0.015625 1.90625 -0.382812 1.59375 -0.84375 C 1.289062 -1.300781 1.050781 -1.863281 0.875 -2.53125 C 0.875 -2.851562 1.078125 -3.054688 1.484375 -3.140625 C 1.609375 -3.140625 1.726562 -3.097656 1.84375 -3.015625 C 1.957031 -2.941406 2.03125 -2.832031 2.0625 -2.6875 C 2.21875 -2.082031 2.441406 -1.613281 2.734375 -1.28125 C 3.035156 -0.945312 3.335938 -0.691406 3.640625 -0.515625 C 3.953125 -0.347656 4.238281 -0.242188 4.5 -0.203125 C 4.769531 -0.171875 4.953125 -0.15625 5.046875 -0.15625 C 5.179688 -0.15625 5.363281 -0.171875 5.59375 -0.203125 C 5.820312 -0.242188 6.050781 -0.296875 6.28125 -0.359375 C 6.519531 -0.421875 6.75 -0.488281 6.96875 -0.5625 C 7.195312 -0.632812 7.367188 -0.707031 7.484375 -0.78125 C 7.609375 -0.84375 7.773438 -0.972656 7.984375 -1.171875 C 8.203125 -1.367188 8.40625 -1.59375 8.59375 -1.84375 C 8.789062 -2.09375 8.960938 -2.359375 9.109375 -2.640625 C 9.253906 -2.929688 9.328125 -3.203125 9.328125 -3.453125 C 9.328125 -3.597656 9.28125 -3.765625 9.1875 -3.953125 C 9.101562 -4.148438 8.953125 -4.367188 8.734375 -4.609375 C 8.515625 -4.847656 8.195312 -5.101562 7.78125 -5.375 C 7.375 -5.644531 6.847656 -5.9375 6.203125 -6.25 C 5.796875 -6.445312 5.363281 -6.65625 4.90625 -6.875 C 4.457031 -7.09375 4.039062 -7.289062 3.65625 -7.46875 C 3.269531 -7.644531 2.945312 -7.796875 2.6875 -7.921875 L 2.296875 -8.09375 L 1.953125 -8.25 L 1.953125 -8.640625 C 1.953125 -9.296875 2.113281 -9.867188 2.4375 -10.359375 C 2.769531 -10.859375 3.171875 -11.273438 3.640625 -11.609375 C 4.117188 -11.953125 4.617188 -12.207031 5.140625 -12.375 C 5.671875 -12.550781 6.132812 -12.640625 6.53125 -12.640625 C 6.945312 -12.640625 7.296875 -12.585938 7.578125 -12.484375 C 7.867188 -12.378906 8.109375 -12.265625 8.296875 -12.140625 C 8.484375 -12.023438 8.625 -11.910156 8.71875 -11.796875 C 8.8125 -11.691406 8.863281 -11.628906 8.875 -11.609375 C 8.945312 -11.503906 8.984375 -11.394531 8.984375 -11.28125 C 8.984375 -11.0625 8.890625 -10.894531 8.703125 -10.78125 C 8.585938 -10.707031 8.476562 -10.671875 8.375 -10.671875 C 8.164062 -10.671875 8.003906 -10.765625 7.890625 -10.953125 C 7.867188 -10.953125 7.832031 -10.976562 7.78125 -11.03125 C 7.738281 -11.082031 7.660156 -11.132812 7.546875 -11.1875 C 7.441406 -11.25 7.304688 -11.304688 7.140625 -11.359375 C 6.972656 -11.410156 6.769531 -11.4375 6.53125 -11.4375 C 6.289062 -11.4375 6 -11.382812 5.65625 -11.28125 C 5.3125 -11.175781 4.96875 -11.019531 4.625 -10.8125 C 4.28125 -10.601562 3.96875 -10.347656 3.6875 -10.046875 C 3.414062 -9.753906 3.25 -9.40625 3.1875 -9 C 3.363281 -8.914062 3.585938 -8.8125 3.859375 -8.6875 C 4.140625 -8.570312 4.441406 -8.4375 4.765625 -8.28125 C 5.085938 -8.132812 5.421875 -7.976562 5.765625 -7.8125 C 6.109375 -7.644531 6.425781 -7.488281 6.71875 -7.34375 Z M 6.71875 -7.34375 "/></g></g></g><g fill="#6d5133" fill-opacity="1"><g transform="translate(147.161568, 255.465804)"><g><path d="M 6.71875 -7.34375 C 9.257812 -6.113281 10.53125 -4.816406 10.53125 -3.453125 C 10.53125 -3.046875 10.4375 -2.640625 10.25 -2.234375 C 10.0625 -1.835938 9.835938 -1.46875 9.578125 -1.125 C 9.328125 -0.789062 9.0625 -0.5 8.78125 -0.25 C 8.5 0 8.265625 0.175781 8.078125 0.28125 C 7.910156 0.382812 7.6875 0.476562 7.40625 0.5625 C 7.125 0.65625 6.835938 0.738281 6.546875 0.8125 C 6.253906 0.882812 5.972656 0.941406 5.703125 0.984375 C 5.441406 1.023438 5.222656 1.046875 5.046875 1.046875 C 4.671875 1.046875 4.269531 0.984375 3.84375 0.859375 C 3.425781 0.742188 3.023438 0.546875 2.640625 0.265625 C 2.253906 -0.015625 1.90625 -0.382812 1.59375 -0.84375 C 1.289062 -1.300781 1.050781 -1.863281 0.875 -2.53125 C 0.875 -2.851562 1.078125 -3.054688 1.484375 -3.140625 C 1.609375 -3.140625 1.726562 -3.097656 1.84375 -3.015625 C 1.957031 -2.941406 2.03125 -2.832031 2.0625 -2.6875 C 2.21875 -2.082031 2.441406 -1.613281 2.734375 -1.28125 C 3.035156 -0.945312 3.335938 -0.691406 3.640625 -0.515625 C 3.953125 -0.347656 4.238281 -0.242188 4.5 -0.203125 C 4.769531 -0.171875 4.953125 -0.15625 5.046875 -0.15625 C 5.179688 -0.15625 5.363281 -0.171875 5.59375 -0.203125 C 5.820312 -0.242188 6.050781 -0.296875 6.28125 -0.359375 C 6.519531 -0.421875 6.75 -0.488281 6.96875 -0.5625 C 7.195312 -0.632812 7.367188 -0.707031 7.484375 -0.78125 C 7.609375 -0.84375 7.773438 -0.972656 7.984375 -1.171875 C 8.203125 -1.367188 8.40625 -1.59375 8.59375 -1.84375 C 8.789062 -2.09375 8.960938 -2.359375 9.109375 -2.640625 C 9.253906 -2.929688 9.328125 -3.203125 9.328125 -3.453125 C 9.328125 -3.597656 9.28125 -3.765625 9.1875 -3.953125 C 9.101562 -4.148438 8.953125 -4.367188 8.734375 -4.609375 C 8.515625 -4.847656 8.195312 -5.101562 7.78125 -5.375 C 7.375 -5.644531 6.847656 -5.9375 6.203125 -6.25 C 5.796875 -6.445312 5.363281 -6.65625 4.90625 -6.875 C 4.457031 -7.09375 4.039062 -7.289062 3.65625 -7.46875 C 3.269531 -7.644531 2.945312 -7.796875 2.6875 -7.921875 L 2.296875 -8.09375 L 1.953125 -8.25 L 1.953125 -8.640625 C 1.953125 -9.296875 2.113281 -9.867188 2.4375 -10.359375 C 2.769531 -10.859375 3.171875 -11.273438 3.640625 -11.609375 C 4.117188 -11.953125 4.617188 -12.207031 5.140625 -12.375 C 5.671875 -12.550781 6.132812 -12.640625 6.53125 -12.640625 C 6.945312 -12.640625 7.296875 -12.585938 7.578125 -12.484375 C 7.867188 -12.378906 8.109375 -12.265625 8.296875 -12.140625 C 8.484375 -12.023438 8.625 -11.910156 8.71875 -11.796875 C 8.8125 -11.691406 8.863281 -11.628906 8.875 -11.609375 C 8.945312 -11.503906 8.984375 -11.394531 8.984375 -11.28125 C 8.984375 -11.0625 8.890625 -10.894531 8.703125 -10.78125 C 8.585938 -10.707031 8.476562 -10.671875 8.375 -10.671875 C 8.164062 -10.671875 8.003906 -10.765625 7.890625 -10.953125 C 7.867188 -10.953125 7.832031 -10.976562 7.78125 -11.03125 C 7.738281 -11.082031 7.660156 -11.132812 7.546875 -11.1875 C 7.441406 -11.25 7.304688 -11.304688 7.140625 -11.359375 C 6.972656 -11.410156 6.769531 -11.4375 6.53125 -11.4375 C 6.289062 -11.4375 6 -11.382812 5.65625 -11.28125 C 5.3125 -11.175781 4.96875 -11.019531 4.625 -10.8125 C 4.28125 -10.601562 3.96875 -10.347656 3.6875 -10.046875 C 3.414062 -9.753906 3.25 -9.40625 3.1875 -9 C 3.363281 -8.914062 3.585938 -8.8125 3.859375 -8.6875 C 4.140625 -8.570312 4.441406 -8.4375 4.765625 -8.28125 C 5.085938 -8.132812 5.421875 -7.976562 5.765625 -7.8125 C 6.109375 -7.644531 6.425781 -7.488281 6.71875 -7.34375 Z M 6.71875 -7.34375 "/></g></g></g><g fill="#6d5133" fill-opacity="1"><g transform="translate(158.331459, 255.465804)"><g><path d="M 5.5625 -0.75 C 5.832031 -0.75 6.175781 -0.878906 6.59375 -1.140625 C 7.019531 -1.410156 7.429688 -1.785156 7.828125 -2.265625 C 8.234375 -2.742188 8.578125 -3.316406 8.859375 -3.984375 C 9.148438 -4.660156 9.296875 -5.414062 9.296875 -6.25 C 9.296875 -7.050781 9.195312 -7.753906 9 -8.359375 C 8.8125 -8.972656 8.59375 -9.488281 8.34375 -9.90625 C 8.09375 -10.332031 7.84375 -10.648438 7.59375 -10.859375 C 7.34375 -11.078125 7.160156 -11.203125 7.046875 -11.234375 C 6.804688 -11.234375 6.585938 -11.210938 6.390625 -11.171875 C 6.203125 -11.140625 6.070312 -11.117188 6 -11.109375 C 5.820312 -11.109375 5.660156 -11.179688 5.515625 -11.328125 C 5.160156 -11.179688 4.789062 -10.859375 4.40625 -10.359375 C 4.019531 -9.859375 3.660156 -9.273438 3.328125 -8.609375 C 3.003906 -7.941406 2.734375 -7.226562 2.515625 -6.46875 C 2.296875 -5.71875 2.1875 -5.03125 2.1875 -4.40625 C 2.1875 -3.75 2.300781 -3.1875 2.53125 -2.71875 C 2.757812 -2.25 3.046875 -1.867188 3.390625 -1.578125 C 3.734375 -1.296875 4.097656 -1.085938 4.484375 -0.953125 C 4.878906 -0.816406 5.238281 -0.75 5.5625 -0.75 Z M 7.0625 -12.4375 C 7.363281 -12.4375 7.710938 -12.289062 8.109375 -12 C 8.503906 -11.707031 8.875 -11.289062 9.21875 -10.75 C 9.570312 -10.21875 9.875 -9.570312 10.125 -8.8125 C 10.375 -8.050781 10.5 -7.195312 10.5 -6.25 C 10.5 -5.289062 10.332031 -4.398438 10 -3.578125 C 9.675781 -2.765625 9.265625 -2.054688 8.765625 -1.453125 C 8.273438 -0.859375 7.738281 -0.390625 7.15625 -0.046875 C 6.582031 0.285156 6.050781 0.453125 5.5625 0.453125 C 5.007812 0.453125 4.457031 0.34375 3.90625 0.125 C 3.363281 -0.0820312 2.878906 -0.390625 2.453125 -0.796875 C 2.023438 -1.210938 1.671875 -1.71875 1.390625 -2.3125 C 1.117188 -2.914062 0.984375 -3.613281 0.984375 -4.40625 C 0.984375 -4.90625 1.046875 -5.457031 1.171875 -6.0625 C 1.304688 -6.664062 1.484375 -7.269531 1.703125 -7.875 C 1.929688 -8.476562 2.195312 -9.0625 2.5 -9.625 C 2.8125 -10.195312 3.144531 -10.703125 3.5 -11.140625 C 3.863281 -11.585938 4.242188 -11.941406 4.640625 -12.203125 C 5.046875 -12.472656 5.453125 -12.609375 5.859375 -12.609375 C 6.023438 -12.609375 6.164062 -12.585938 6.28125 -12.546875 C 6.40625 -12.515625 6.519531 -12.472656 6.625 -12.421875 C 6.6875 -12.421875 6.753906 -12.421875 6.828125 -12.421875 C 6.898438 -12.429688 6.976562 -12.4375 7.0625 -12.4375 Z M 7.0625 -12.4375 "/></g></g></g><g fill="#6d5133" fill-opacity="1"><g transform="translate(169.50135, 255.465804)"><g><path d="M 7.5 -12.265625 C 7.8125 -12.265625 8.070312 -12.238281 8.28125 -12.1875 C 8.5 -12.144531 8.675781 -12.085938 8.8125 -12.015625 C 8.957031 -11.953125 9.066406 -11.882812 9.140625 -11.8125 C 9.222656 -11.738281 9.273438 -11.679688 9.296875 -11.640625 C 9.367188 -11.546875 9.40625 -11.441406 9.40625 -11.328125 C 9.40625 -11.097656 9.320312 -10.929688 9.15625 -10.828125 C 9.070312 -10.753906 8.957031 -10.71875 8.8125 -10.71875 C 8.632812 -10.71875 8.484375 -10.785156 8.359375 -10.921875 C 8.328125 -10.929688 8.25 -10.957031 8.125 -11 C 8.007812 -11.039062 7.800781 -11.0625 7.5 -11.0625 C 7.320312 -11.0625 7.007812 -10.953125 6.5625 -10.734375 C 6.125 -10.523438 5.675781 -10.175781 5.21875 -9.6875 C 4.757812 -9.195312 4.347656 -8.5625 3.984375 -7.78125 C 3.617188 -7.007812 3.4375 -6.054688 3.4375 -4.921875 C 3.476562 -4.734375 3.519531 -4.539062 3.5625 -4.34375 C 3.601562 -4.15625 3.65625 -3.960938 3.71875 -3.765625 C 3.875 -3.117188 4.03125 -2.441406 4.1875 -1.734375 C 4.34375 -1.035156 4.421875 -0.320312 4.421875 0.40625 C 4.421875 0.582031 4.359375 0.726562 4.234375 0.84375 C 4.117188 0.957031 3.984375 1.015625 3.828125 1.015625 C 3.648438 1.015625 3.503906 0.957031 3.390625 0.84375 C 3.273438 0.726562 3.21875 0.582031 3.21875 0.40625 C 3.21875 -0.25 3.144531 -0.90625 3 -1.5625 C 2.863281 -2.226562 2.71875 -2.859375 2.5625 -3.453125 C 2.414062 -3.984375 2.285156 -4.492188 2.171875 -4.984375 C 2.066406 -5.484375 2.015625 -5.941406 2.015625 -6.359375 C 2.015625 -6.773438 1.984375 -7.296875 1.921875 -7.921875 C 1.867188 -8.554688 1.800781 -9.171875 1.71875 -9.765625 C 1.644531 -10.359375 1.578125 -10.875 1.515625 -11.3125 C 1.460938 -11.75 1.4375 -11.984375 1.4375 -12.015625 C 1.4375 -12.148438 1.484375 -12.273438 1.578125 -12.390625 C 1.679688 -12.503906 1.835938 -12.578125 2.046875 -12.609375 C 2.179688 -12.609375 2.300781 -12.5625 2.40625 -12.46875 C 2.519531 -12.375 2.59375 -12.25 2.625 -12.09375 C 2.625 -12.0625 2.640625 -11.941406 2.671875 -11.734375 C 2.710938 -11.535156 2.753906 -11.273438 2.796875 -10.953125 C 2.835938 -10.640625 2.882812 -10.28125 2.9375 -9.875 C 2.988281 -9.476562 3.035156 -9.082031 3.078125 -8.6875 C 3.359375 -9.269531 3.695312 -9.785156 4.09375 -10.234375 C 4.488281 -10.691406 4.894531 -11.066406 5.3125 -11.359375 C 5.726562 -11.660156 6.128906 -11.882812 6.515625 -12.03125 C 6.898438 -12.1875 7.226562 -12.265625 7.5 -12.265625 Z M 7.5 -12.265625 "/></g></g></g><g fill="#6d5133" fill-opacity="1"><g transform="translate(179.017237, 255.465804)"><g><path d="M 1.84375 -12.84375 C 1.601562 -12.84375 1.398438 -12.925781 1.234375 -13.09375 C 1.066406 -13.257812 0.984375 -13.460938 0.984375 -13.703125 C 0.984375 -13.953125 1.066406 -14.15625 1.234375 -14.3125 C 1.398438 -14.46875 1.601562 -14.546875 1.84375 -14.546875 C 2.070312 -14.546875 2.269531 -14.46875 2.4375 -14.3125 C 2.601562 -14.15625 2.6875 -13.953125 2.6875 -13.703125 C 2.6875 -13.460938 2.601562 -13.257812 2.4375 -13.09375 C 2.269531 -12.925781 2.070312 -12.84375 1.84375 -12.84375 Z M 2.125 -11.953125 C 2.28125 -11.953125 2.410156 -11.90625 2.515625 -11.8125 C 2.628906 -11.71875 2.703125 -11.597656 2.734375 -11.453125 C 2.734375 -11.410156 2.765625 -11.1875 2.828125 -10.78125 C 2.890625 -10.382812 2.960938 -9.898438 3.046875 -9.328125 C 3.140625 -8.753906 3.222656 -8.140625 3.296875 -7.484375 C 3.378906 -6.835938 3.429688 -6.253906 3.453125 -5.734375 C 3.484375 -5.234375 3.535156 -4.644531 3.609375 -3.96875 C 3.679688 -3.300781 3.757812 -2.660156 3.84375 -2.046875 C 3.925781 -1.441406 4 -0.921875 4.0625 -0.484375 C 4.132812 -0.046875 4.171875 0.1875 4.171875 0.21875 C 4.171875 0.375 4.117188 0.503906 4.015625 0.609375 C 3.921875 0.722656 3.769531 0.789062 3.5625 0.8125 C 3.40625 0.8125 3.273438 0.765625 3.171875 0.671875 C 3.066406 0.578125 3 0.453125 2.96875 0.296875 C 2.96875 0.253906 2.929688 0.0195312 2.859375 -0.40625 C 2.796875 -0.832031 2.722656 -1.347656 2.640625 -1.953125 C 2.554688 -2.566406 2.476562 -3.210938 2.40625 -3.890625 C 2.332031 -4.566406 2.28125 -5.160156 2.25 -5.671875 C 2.226562 -6.171875 2.175781 -6.742188 2.09375 -7.390625 C 2.019531 -8.035156 1.941406 -8.644531 1.859375 -9.21875 C 1.773438 -9.789062 1.703125 -10.28125 1.640625 -10.6875 C 1.578125 -11.09375 1.546875 -11.3125 1.546875 -11.34375 C 1.546875 -11.488281 1.585938 -11.617188 1.671875 -11.734375 C 1.765625 -11.847656 1.890625 -11.921875 2.046875 -11.953125 Z M 2.125 -11.953125 "/></g></g></g><g fill="#6d5133" fill-opacity="1"><g transform="translate(184.279974, 255.465804)"><g><path d="M 5.96875 -10.828125 C 5.84375 -10.828125 5.585938 -10.757812 5.203125 -10.625 C 4.828125 -10.488281 4.4375 -10.242188 4.03125 -9.890625 C 3.625 -9.546875 3.242188 -9.0625 2.890625 -8.4375 C 2.535156 -7.8125 2.316406 -7.007812 2.234375 -6.03125 C 2.472656 -6.09375 2.75 -6.160156 3.0625 -6.234375 C 3.375 -6.304688 3.679688 -6.375 3.984375 -6.4375 C 4.296875 -6.5 4.585938 -6.550781 4.859375 -6.59375 C 5.140625 -6.632812 5.367188 -6.65625 5.546875 -6.65625 C 5.742188 -6.65625 5.992188 -6.703125 6.296875 -6.796875 C 6.609375 -6.890625 6.914062 -6.988281 7.21875 -7.09375 C 7.457031 -7.175781 7.6875 -7.25 7.90625 -7.3125 C 8.125 -7.375 8.332031 -7.4375 8.53125 -7.5 C 8.46875 -8.070312 8.34375 -8.566406 8.15625 -8.984375 C 7.976562 -9.398438 7.765625 -9.742188 7.515625 -10.015625 C 7.273438 -10.285156 7.019531 -10.488281 6.75 -10.625 C 6.476562 -10.757812 6.21875 -10.828125 5.96875 -10.828125 Z M 10.03125 -0.984375 C 10.1875 -0.984375 10.316406 -0.929688 10.421875 -0.828125 C 10.535156 -0.734375 10.609375 -0.585938 10.640625 -0.390625 C 10.640625 -0.234375 10.59375 -0.101562 10.5 0 C 10.40625 0.113281 10.28125 0.1875 10.125 0.21875 C 10.09375 0.21875 9.960938 0.234375 9.734375 0.265625 C 9.503906 0.304688 9.226562 0.347656 8.90625 0.390625 C 8.59375 0.429688 8.265625 0.460938 7.921875 0.484375 C 7.578125 0.515625 7.285156 0.53125 7.046875 0.53125 C 5.140625 0.53125 3.675781 0.0234375 2.65625 -0.984375 C 1.644531 -1.992188 1.085938 -3.414062 0.984375 -5.25 C 0.960938 -6.175781 1.046875 -6.988281 1.234375 -7.6875 C 1.429688 -8.394531 1.691406 -9 2.015625 -9.5 C 2.335938 -10 2.695312 -10.410156 3.09375 -10.734375 C 3.5 -11.066406 3.890625 -11.328125 4.265625 -11.515625 C 4.640625 -11.703125 4.984375 -11.832031 5.296875 -11.90625 C 5.609375 -11.988281 5.832031 -12.03125 5.96875 -12.03125 C 6.34375 -12.03125 6.738281 -11.9375 7.15625 -11.75 C 7.582031 -11.5625 7.976562 -11.273438 8.34375 -10.890625 C 8.707031 -10.515625 9.019531 -10.035156 9.28125 -9.453125 C 9.539062 -8.867188 9.695312 -8.175781 9.75 -7.375 C 9.84375 -7.257812 9.890625 -7.128906 9.890625 -6.984375 C 9.890625 -6.835938 9.84375 -6.71875 9.75 -6.625 C 9.675781 -6.332031 9.484375 -6.1875 9.171875 -6.1875 C 9.023438 -6.1875 8.90625 -6.226562 8.8125 -6.3125 C 8.425781 -6.226562 8.023438 -6.109375 7.609375 -5.953125 C 7.234375 -5.828125 6.863281 -5.710938 6.5 -5.609375 C 6.144531 -5.503906 5.828125 -5.453125 5.546875 -5.453125 C 5.390625 -5.453125 5.175781 -5.429688 4.90625 -5.390625 C 4.644531 -5.347656 4.351562 -5.289062 4.03125 -5.21875 C 3.71875 -5.144531 3.398438 -5.066406 3.078125 -4.984375 C 2.753906 -4.910156 2.46875 -4.835938 2.21875 -4.765625 C 2.269531 -3.878906 2.472656 -3.164062 2.828125 -2.625 C 3.179688 -2.09375 3.597656 -1.679688 4.078125 -1.390625 C 4.554688 -1.097656 5.0625 -0.90625 5.59375 -0.8125 C 6.132812 -0.71875 6.617188 -0.671875 7.046875 -0.671875 C 7.273438 -0.671875 7.550781 -0.679688 7.875 -0.703125 C 8.207031 -0.734375 8.523438 -0.769531 8.828125 -0.8125 C 9.128906 -0.851562 9.394531 -0.890625 9.625 -0.921875 L 9.953125 -0.96875 Z M 10.03125 -0.984375 "/></g></g></g><g fill="#6d5133" fill-opacity="1"><g transform="translate(195.127656, 255.465804)"><g><path d="M 6.71875 -7.34375 C 9.257812 -6.113281 10.53125 -4.816406 10.53125 -3.453125 C 10.53125 -3.046875 10.4375 -2.640625 10.25 -2.234375 C 10.0625 -1.835938 9.835938 -1.46875 9.578125 -1.125 C 9.328125 -0.789062 9.0625 -0.5 8.78125 -0.25 C 8.5 0 8.265625 0.175781 8.078125 0.28125 C 7.910156 0.382812 7.6875 0.476562 7.40625 0.5625 C 7.125 0.65625 6.835938 0.738281 6.546875 0.8125 C 6.253906 0.882812 5.972656 0.941406 5.703125 0.984375 C 5.441406 1.023438 5.222656 1.046875 5.046875 1.046875 C 4.671875 1.046875 4.269531 0.984375 3.84375 0.859375 C 3.425781 0.742188 3.023438 0.546875 2.640625 0.265625 C 2.253906 -0.015625 1.90625 -0.382812 1.59375 -0.84375 C 1.289062 -1.300781 1.050781 -1.863281 0.875 -2.53125 C 0.875 -2.851562 1.078125 -3.054688 1.484375 -3.140625 C 1.609375 -3.140625 1.726562 -3.097656 1.84375 -3.015625 C 1.957031 -2.941406 2.03125 -2.832031 2.0625 -2.6875 C 2.21875 -2.082031 2.441406 -1.613281 2.734375 -1.28125 C 3.035156 -0.945312 3.335938 -0.691406 3.640625 -0.515625 C 3.953125 -0.347656 4.238281 -0.242188 4.5 -0.203125 C 4.769531 -0.171875 4.953125 -0.15625 5.046875 -0.15625 C 5.179688 -0.15625 5.363281 -0.171875 5.59375 -0.203125 C 5.820312 -0.242188 6.050781 -0.296875 6.28125 -0.359375 C 6.519531 -0.421875 6.75 -0.488281 6.96875 -0.5625 C 7.195312 -0.632812 7.367188 -0.707031 7.484375 -0.78125 C 7.609375 -0.84375 7.773438 -0.972656 7.984375 -1.171875 C 8.203125 -1.367188 8.40625 -1.59375 8.59375 -1.84375 C 8.789062 -2.09375 8.960938 -2.359375 9.109375 -2.640625 C 9.253906 -2.929688 9.328125 -3.203125 9.328125 -3.453125 C 9.328125 -3.597656 9.28125 -3.765625 9.1875 -3.953125 C 9.101562 -4.148438 8.953125 -4.367188 8.734375 -4.609375 C 8.515625 -4.847656 8.195312 -5.101562 7.78125 -5.375 C 7.375 -5.644531 6.847656 -5.9375 6.203125 -6.25 C 5.796875 -6.445312 5.363281 -6.65625 4.90625 -6.875 C 4.457031 -7.09375 4.039062 -7.289062 3.65625 -7.46875 C 3.269531 -7.644531 2.945312 -7.796875 2.6875 -7.921875 L 2.296875 -8.09375 L 1.953125 -8.25 L 1.953125 -8.640625 C 1.953125 -9.296875 2.113281 -9.867188 2.4375 -10.359375 C 2.769531 -10.859375 3.171875 -11.273438 3.640625 -11.609375 C 4.117188 -11.953125 4.617188 -12.207031 5.140625 -12.375 C 5.671875 -12.550781 6.132812 -12.640625 6.53125 -12.640625 C 6.945312 -12.640625 7.296875 -12.585938 7.578125 -12.484375 C 7.867188 -12.378906 8.109375 -12.265625 8.296875 -12.140625 C 8.484375 -12.023438 8.625 -11.910156 8.71875 -11.796875 C 8.8125 -11.691406 8.863281 -11.628906 8.875 -11.609375 C 8.945312 -11.503906 8.984375 -11.394531 8.984375 -11.28125 C 8.984375 -11.0625 8.890625 -10.894531 8.703125 -10.78125 C 8.585938 -10.707031 8.476562 -10.671875 8.375 -10.671875 C 8.164062 -10.671875 8.003906 -10.765625 7.890625 -10.953125 C 7.867188 -10.953125 7.832031 -10.976562 7.78125 -11.03125 C 7.738281 -11.082031 7.660156 -11.132812 7.546875 -11.1875 C 7.441406 -11.25 7.304688 -11.304688 7.140625 -11.359375 C 6.972656 -11.410156 6.769531 -11.4375 6.53125 -11.4375 C 6.289062 -11.4375 6 -11.382812 5.65625 -11.28125 C 5.3125 -11.175781 4.96875 -11.019531 4.625 -10.8125 C 4.28125 -10.601562 3.96875 -10.347656 3.6875 -10.046875 C 3.414062 -9.753906 3.25 -9.40625 3.1875 -9 C 3.363281 -8.914062 3.585938 -8.8125 3.859375 -8.6875 C 4.140625 -8.570312 4.441406 -8.4375 4.765625 -8.28125 C 5.085938 -8.132812 5.421875 -7.976562 5.765625 -7.8125 C 6.109375 -7.644531 6.425781 -7.488281 6.71875 -7.34375 Z M 6.71875 -7.34375 "/></g></g></g><g fill="#6d5133" fill-opacity="1"><g transform="translate(206.297547, 255.465804)"><g/></g></g><g fill="#6d5133" fill-opacity="1"><g transform="translate(213.600937, 255.465804)"><g><path d="M 9.859375 -12.046875 C 9.734375 -12.046875 9.613281 -12.085938 9.5 -12.171875 C 9.382812 -12.265625 9.3125 -12.382812 9.28125 -12.53125 C 9.28125 -12.550781 9.226562 -12.707031 9.125 -13 C 9.03125 -13.300781 8.867188 -13.617188 8.640625 -13.953125 C 8.421875 -14.285156 8.117188 -14.585938 7.734375 -14.859375 C 7.347656 -15.140625 6.867188 -15.28125 6.296875 -15.28125 C 5.796875 -15.28125 5.335938 -15.070312 4.921875 -14.65625 C 4.722656 -14.4375 4.5625 -14.191406 4.4375 -13.921875 C 4.3125 -13.648438 4.25 -13.367188 4.25 -13.078125 L 4.34375 -9.8125 C 4.757812 -9.84375 5.191406 -9.875 5.640625 -9.90625 C 6.085938 -9.9375 6.550781 -9.960938 7.03125 -9.984375 C 7.1875 -9.984375 7.320312 -9.925781 7.4375 -9.8125 C 7.550781 -9.695312 7.613281 -9.554688 7.625 -9.390625 C 7.625 -9.234375 7.566406 -9.09375 7.453125 -8.96875 C 7.335938 -8.84375 7.203125 -8.78125 7.046875 -8.78125 C 6.585938 -8.757812 6.132812 -8.734375 5.6875 -8.703125 C 5.25 -8.671875 4.820312 -8.640625 4.40625 -8.609375 C 4.457031 -7.828125 4.550781 -6.96875 4.6875 -6.03125 C 4.832031 -5.09375 4.96875 -4.207031 5.09375 -3.375 C 5.21875 -2.539062 5.332031 -1.84375 5.4375 -1.28125 C 5.539062 -0.71875 5.59375 -0.410156 5.59375 -0.359375 C 5.59375 -0.0351562 5.390625 0.160156 4.984375 0.234375 C 4.648438 0.234375 4.453125 0.0664062 4.390625 -0.265625 C 4.390625 -0.304688 4.363281 -0.460938 4.3125 -0.734375 C 4.257812 -1.003906 4.191406 -1.359375 4.109375 -1.796875 C 4.035156 -2.234375 3.953125 -2.726562 3.859375 -3.28125 C 3.773438 -3.832031 3.691406 -4.40625 3.609375 -5 C 3.523438 -5.601562 3.445312 -6.207031 3.375 -6.8125 C 3.300781 -7.414062 3.242188 -7.984375 3.203125 -8.515625 C 2.585938 -8.453125 2.085938 -8.398438 1.703125 -8.359375 C 1.316406 -8.316406 1.09375 -8.285156 1.03125 -8.265625 C 0.882812 -8.265625 0.753906 -8.316406 0.640625 -8.421875 C 0.523438 -8.523438 0.457031 -8.675781 0.4375 -8.875 C 0.4375 -9.03125 0.484375 -9.160156 0.578125 -9.265625 C 0.679688 -9.378906 0.8125 -9.445312 0.96875 -9.46875 C 0.976562 -9.46875 1.179688 -9.488281 1.578125 -9.53125 C 1.972656 -9.582031 2.492188 -9.644531 3.140625 -9.71875 L 3.140625 -9.984375 L 3.046875 -13.125 C 3.046875 -13.539062 3.132812 -13.957031 3.3125 -14.375 C 3.5 -14.789062 3.75 -15.160156 4.0625 -15.484375 C 4.375 -15.804688 4.71875 -16.050781 5.09375 -16.21875 C 5.476562 -16.394531 5.878906 -16.484375 6.296875 -16.484375 C 6.953125 -16.484375 7.523438 -16.347656 8.015625 -16.078125 C 8.503906 -15.816406 8.914062 -15.492188 9.25 -15.109375 C 9.582031 -14.722656 9.847656 -14.304688 10.046875 -13.859375 C 10.253906 -13.410156 10.394531 -13.007812 10.46875 -12.65625 C 10.46875 -12.34375 10.316406 -12.148438 10.015625 -12.078125 Z M 9.859375 -12.046875 "/></g></g></g><g fill="#6d5133" fill-opacity="1"><g transform="translate(222.407966, 255.465804)"><g><path d="M 5.5625 -0.75 C 5.832031 -0.75 6.175781 -0.878906 6.59375 -1.140625 C 7.019531 -1.410156 7.429688 -1.785156 7.828125 -2.265625 C 8.234375 -2.742188 8.578125 -3.316406 8.859375 -3.984375 C 9.148438 -4.660156 9.296875 -5.414062 9.296875 -6.25 C 9.296875 -7.050781 9.195312 -7.753906 9 -8.359375 C 8.8125 -8.972656 8.59375 -9.488281 8.34375 -9.90625 C 8.09375 -10.332031 7.84375 -10.648438 7.59375 -10.859375 C 7.34375 -11.078125 7.160156 -11.203125 7.046875 -11.234375 C 6.804688 -11.234375 6.585938 -11.210938 6.390625 -11.171875 C 6.203125 -11.140625 6.070312 -11.117188 6 -11.109375 C 5.820312 -11.109375 5.660156 -11.179688 5.515625 -11.328125 C 5.160156 -11.179688 4.789062 -10.859375 4.40625 -10.359375 C 4.019531 -9.859375 3.660156 -9.273438 3.328125 -8.609375 C 3.003906 -7.941406 2.734375 -7.226562 2.515625 -6.46875 C 2.296875 -5.71875 2.1875 -5.03125 2.1875 -4.40625 C 2.1875 -3.75 2.300781 -3.1875 2.53125 -2.71875 C 2.757812 -2.25 3.046875 -1.867188 3.390625 -1.578125 C 3.734375 -1.296875 4.097656 -1.085938 4.484375 -0.953125 C 4.878906 -0.816406 5.238281 -0.75 5.5625 -0.75 Z M 7.0625 -12.4375 C 7.363281 -12.4375 7.710938 -12.289062 8.109375 -12 C 8.503906 -11.707031 8.875 -11.289062 9.21875 -10.75 C 9.570312 -10.21875 9.875 -9.570312 10.125 -8.8125 C 10.375 -8.050781 10.5 -7.195312 10.5 -6.25 C 10.5 -5.289062 10.332031 -4.398438 10 -3.578125 C 9.675781 -2.765625 9.265625 -2.054688 8.765625 -1.453125 C 8.273438 -0.859375 7.738281 -0.390625 7.15625 -0.046875 C 6.582031 0.285156 6.050781 0.453125 5.5625 0.453125 C 5.007812 0.453125 4.457031 0.34375 3.90625 0.125 C 3.363281 -0.0820312 2.878906 -0.390625 2.453125 -0.796875 C 2.023438 -1.210938 1.671875 -1.71875 1.390625 -2.3125 C 1.117188 -2.914062 0.984375 -3.613281 0.984375 -4.40625 C 0.984375 -4.90625 1.046875 -5.457031 1.171875 -6.0625 C 1.304688 -6.664062 1.484375 -7.269531 1.703125 -7.875 C 1.929688 -8.476562 2.195312 -9.0625 2.5 -9.625 C 2.8125 -10.195312 3.144531 -10.703125 3.5 -11.140625 C 3.863281 -11.585938 4.242188 -11.941406 4.640625 -12.203125 C 5.046875 -12.472656 5.453125 -12.609375 5.859375 -12.609375 C 6.023438 -12.609375 6.164062 -12.585938 6.28125 -12.546875 C 6.40625 -12.515625 6.519531 -12.472656 6.625 -12.421875 C 6.6875 -12.421875 6.753906 -12.421875 6.828125 -12.421875 C 6.898438 -12.429688 6.976562 -12.4375 7.0625 -12.4375 Z M 7.0625 -12.4375 "/></g></g></g><g fill="#6d5133" fill-opacity="1"><g transform="translate(233.577857, 255.465804)"><g><path d="M 7.5 -12.265625 C 7.8125 -12.265625 8.070312 -12.238281 8.28125 -12.1875 C 8.5 -12.144531 8.675781 -12.085938 8.8125 -12.015625 C 8.957031 -11.953125 9.066406 -11.882812 9.140625 -11.8125 C 9.222656 -11.738281 9.273438 -11.679688 9.296875 -11.640625 C 9.367188 -11.546875 9.40625 -11.441406 9.40625 -11.328125 C 9.40625 -11.097656 9.320312 -10.929688 9.15625 -10.828125 C 9.070312 -10.753906 8.957031 -10.71875 8.8125 -10.71875 C 8.632812 -10.71875 8.484375 -10.785156 8.359375 -10.921875 C 8.328125 -10.929688 8.25 -10.957031 8.125 -11 C 8.007812 -11.039062 7.800781 -11.0625 7.5 -11.0625 C 7.320312 -11.0625 7.007812 -10.953125 6.5625 -10.734375 C 6.125 -10.523438 5.675781 -10.175781 5.21875 -9.6875 C 4.757812 -9.195312 4.347656 -8.5625 3.984375 -7.78125 C 3.617188 -7.007812 3.4375 -6.054688 3.4375 -4.921875 C 3.476562 -4.734375 3.519531 -4.539062 3.5625 -4.34375 C 3.601562 -4.15625 3.65625 -3.960938 3.71875 -3.765625 C 3.875 -3.117188 4.03125 -2.441406 4.1875 -1.734375 C 4.34375 -1.035156 4.421875 -0.320312 4.421875 0.40625 C 4.421875 0.582031 4.359375 0.726562 4.234375 0.84375 C 4.117188 0.957031 3.984375 1.015625 3.828125 1.015625 C 3.648438 1.015625 3.503906 0.957031 3.390625 0.84375 C 3.273438 0.726562 3.21875 0.582031 3.21875 0.40625 C 3.21875 -0.25 3.144531 -0.90625 3 -1.5625 C 2.863281 -2.226562 2.71875 -2.859375 2.5625 -3.453125 C 2.414062 -3.984375 2.285156 -4.492188 2.171875 -4.984375 C 2.066406 -5.484375 2.015625 -5.941406 2.015625 -6.359375 C 2.015625 -6.773438 1.984375 -7.296875 1.921875 -7.921875 C 1.867188 -8.554688 1.800781 -9.171875 1.71875 -9.765625 C 1.644531 -10.359375 1.578125 -10.875 1.515625 -11.3125 C 1.460938 -11.75 1.4375 -11.984375 1.4375 -12.015625 C 1.4375 -12.148438 1.484375 -12.273438 1.578125 -12.390625 C 1.679688 -12.503906 1.835938 -12.578125 2.046875 -12.609375 C 2.179688 -12.609375 2.300781 -12.5625 2.40625 -12.46875 C 2.519531 -12.375 2.59375 -12.25 2.625 -12.09375 C 2.625 -12.0625 2.640625 -11.941406 2.671875 -11.734375 C 2.710938 -11.535156 2.753906 -11.273438 2.796875 -10.953125 C 2.835938 -10.640625 2.882812 -10.28125 2.9375 -9.875 C 2.988281 -9.476562 3.035156 -9.082031 3.078125 -8.6875 C 3.359375 -9.269531 3.695312 -9.785156 4.09375 -10.234375 C 4.488281 -10.691406 4.894531 -11.066406 5.3125 -11.359375 C 5.726562 -11.660156 6.128906 -11.882812 6.515625 -12.03125 C 6.898438 -12.1875 7.226562 -12.265625 7.5 -12.265625 Z M 7.5 -12.265625 "/></g></g></g><g fill="#6d5133" fill-opacity="1"><g transform="translate(243.093744, 255.465804)"><g/></g></g><g fill="#6d5133" fill-opacity="1"><g transform="translate(250.397134, 255.465804)"><g><path d="M 9.640625 -4.921875 C 9.710938 -5.109375 9.757812 -5.296875 9.78125 -5.484375 C 9.800781 -5.671875 9.8125 -5.851562 9.8125 -6.03125 C 9.8125 -6.488281 9.738281 -6.929688 9.59375 -7.359375 C 9.445312 -7.796875 9.25 -8.195312 9 -8.5625 C 8.757812 -8.925781 8.488281 -9.253906 8.1875 -9.546875 C 7.882812 -9.835938 7.582031 -10.078125 7.28125 -10.265625 C 6.925781 -10.472656 6.5 -10.578125 6 -10.578125 C 5.550781 -10.578125 5.082031 -10.488281 4.59375 -10.3125 C 4.113281 -10.144531 3.675781 -9.875 3.28125 -9.5 C 3.144531 -9.382812 3.007812 -9.328125 2.875 -9.328125 C 2.789062 -9.328125 2.707031 -9.347656 2.625 -9.390625 C 2.695312 -8.941406 2.773438 -8.425781 2.859375 -7.84375 C 2.941406 -7.269531 3.023438 -6.660156 3.109375 -6.015625 C 3.203125 -5.367188 3.289062 -4.707031 3.375 -4.03125 C 3.457031 -3.363281 3.53125 -2.722656 3.59375 -2.109375 C 3.789062 -2.023438 3.910156 -1.859375 3.953125 -1.609375 C 3.953125 -1.597656 3.96875 -1.546875 4 -1.453125 C 4.039062 -1.367188 4.132812 -1.285156 4.28125 -1.203125 C 4.507812 -1.078125 4.757812 -1.015625 5.03125 -1.015625 C 5.195312 -1.015625 5.363281 -1.035156 5.53125 -1.078125 C 5.695312 -1.117188 5.851562 -1.160156 6 -1.203125 C 6.382812 -1.347656 6.765625 -1.550781 7.140625 -1.8125 C 7.523438 -2.082031 7.878906 -2.382812 8.203125 -2.71875 C 8.535156 -3.050781 8.828125 -3.40625 9.078125 -3.78125 C 9.328125 -4.164062 9.515625 -4.546875 9.640625 -4.921875 Z M 7.90625 -11.28125 C 8.320312 -11.019531 8.71875 -10.703125 9.09375 -10.328125 C 9.476562 -9.960938 9.8125 -9.550781 10.09375 -9.09375 C 10.382812 -8.632812 10.609375 -8.144531 10.765625 -7.625 C 10.929688 -7.113281 11.015625 -6.582031 11.015625 -6.03125 C 11.015625 -5.507812 10.9375 -5.019531 10.78125 -4.5625 C 10.625 -4.101562 10.398438 -3.644531 10.109375 -3.1875 C 9.816406 -2.726562 9.476562 -2.296875 9.09375 -1.890625 C 8.707031 -1.492188 8.28125 -1.132812 7.8125 -0.8125 C 7.34375 -0.5 6.875 -0.257812 6.40625 -0.09375 C 5.925781 0.09375 5.46875 0.1875 5.03125 0.1875 C 4.570312 0.1875 4.132812 0.0703125 3.71875 -0.15625 L 3.71875 0.359375 C 3.71875 1.148438 3.742188 1.988281 3.796875 2.875 C 3.847656 3.769531 3.898438 4.59375 3.953125 5.34375 C 4.015625 6.101562 4.066406 6.738281 4.109375 7.25 C 4.160156 7.757812 4.1875 8.03125 4.1875 8.0625 C 4.1875 8.21875 4.132812 8.351562 4.03125 8.46875 C 3.9375 8.582031 3.789062 8.644531 3.59375 8.65625 C 3.4375 8.65625 3.300781 8.601562 3.1875 8.5 C 3.082031 8.40625 3.015625 8.28125 2.984375 8.125 C 2.984375 8.101562 2.957031 7.835938 2.90625 7.328125 C 2.863281 6.828125 2.8125 6.191406 2.75 5.421875 C 2.695312 4.660156 2.644531 3.828125 2.59375 2.921875 C 2.539062 2.015625 2.515625 1.160156 2.515625 0.359375 C 2.515625 -0.148438 2.484375 -0.773438 2.421875 -1.515625 C 2.359375 -2.265625 2.28125 -3.046875 2.1875 -3.859375 C 2.09375 -4.671875 1.988281 -5.476562 1.875 -6.28125 C 1.757812 -7.082031 1.648438 -7.800781 1.546875 -8.4375 C 1.441406 -9.082031 1.359375 -9.609375 1.296875 -10.015625 C 1.234375 -10.429688 1.203125 -10.648438 1.203125 -10.671875 C 1.203125 -11.003906 1.40625 -11.207031 1.8125 -11.28125 C 1.96875 -11.28125 2.097656 -11.234375 2.203125 -11.140625 C 2.304688 -11.054688 2.375 -10.9375 2.40625 -10.78125 L 2.46875 -10.375 C 2.988281 -10.863281 3.554688 -11.21875 4.171875 -11.4375 C 4.785156 -11.664062 5.382812 -11.78125 5.96875 -11.78125 C 6.726562 -11.78125 7.375 -11.613281 7.90625 -11.28125 Z M 7.90625 -11.28125 "/></g></g></g><g fill="#6d5133" fill-opacity="1"><g transform="translate(262.189961, 255.465804)"><g><path d="M 5.96875 -10.828125 C 5.84375 -10.828125 5.585938 -10.757812 5.203125 -10.625 C 4.828125 -10.488281 4.4375 -10.242188 4.03125 -9.890625 C 3.625 -9.546875 3.242188 -9.0625 2.890625 -8.4375 C 2.535156 -7.8125 2.316406 -7.007812 2.234375 -6.03125 C 2.472656 -6.09375 2.75 -6.160156 3.0625 -6.234375 C 3.375 -6.304688 3.679688 -6.375 3.984375 -6.4375 C 4.296875 -6.5 4.585938 -6.550781 4.859375 -6.59375 C 5.140625 -6.632812 5.367188 -6.65625 5.546875 -6.65625 C 5.742188 -6.65625 5.992188 -6.703125 6.296875 -6.796875 C 6.609375 -6.890625 6.914062 -6.988281 7.21875 -7.09375 C 7.457031 -7.175781 7.6875 -7.25 7.90625 -7.3125 C 8.125 -7.375 8.332031 -7.4375 8.53125 -7.5 C 8.46875 -8.070312 8.34375 -8.566406 8.15625 -8.984375 C 7.976562 -9.398438 7.765625 -9.742188 7.515625 -10.015625 C 7.273438 -10.285156 7.019531 -10.488281 6.75 -10.625 C 6.476562 -10.757812 6.21875 -10.828125 5.96875 -10.828125 Z M 10.03125 -0.984375 C 10.1875 -0.984375 10.316406 -0.929688 10.421875 -0.828125 C 10.535156 -0.734375 10.609375 -0.585938 10.640625 -0.390625 C 10.640625 -0.234375 10.59375 -0.101562 10.5 0 C 10.40625 0.113281 10.28125 0.1875 10.125 0.21875 C 10.09375 0.21875 9.960938 0.234375 9.734375 0.265625 C 9.503906 0.304688 9.226562 0.347656 8.90625 0.390625 C 8.59375 0.429688 8.265625 0.460938 7.921875 0.484375 C 7.578125 0.515625 7.285156 0.53125 7.046875 0.53125 C 5.140625 0.53125 3.675781 0.0234375 2.65625 -0.984375 C 1.644531 -1.992188 1.085938 -3.414062 0.984375 -5.25 C 0.960938 -6.175781 1.046875 -6.988281 1.234375 -7.6875 C 1.429688 -8.394531 1.691406 -9 2.015625 -9.5 C 2.335938 -10 2.695312 -10.410156 3.09375 -10.734375 C 3.5 -11.066406 3.890625 -11.328125 4.265625 -11.515625 C 4.640625 -11.703125 4.984375 -11.832031 5.296875 -11.90625 C 5.609375 -11.988281 5.832031 -12.03125 5.96875 -12.03125 C 6.34375 -12.03125 6.738281 -11.9375 7.15625 -11.75 C 7.582031 -11.5625 7.976562 -11.273438 8.34375 -10.890625 C 8.707031 -10.515625 9.019531 -10.035156 9.28125 -9.453125 C 9.539062 -8.867188 9.695312 -8.175781 9.75 -7.375 C 9.84375 -7.257812 9.890625 -7.128906 9.890625 -6.984375 C 9.890625 -6.835938 9.84375 -6.71875 9.75 -6.625 C 9.675781 -6.332031 9.484375 -6.1875 9.171875 -6.1875 C 9.023438 -6.1875 8.90625 -6.226562 8.8125 -6.3125 C 8.425781 -6.226562 8.023438 -6.109375 7.609375 -5.953125 C 7.234375 -5.828125 6.863281 -5.710938 6.5 -5.609375 C 6.144531 -5.503906 5.828125 -5.453125 5.546875 -5.453125 C 5.390625 -5.453125 5.175781 -5.429688 4.90625 -5.390625 C 4.644531 -5.347656 4.351562 -5.289062 4.03125 -5.21875 C 3.71875 -5.144531 3.398438 -5.066406 3.078125 -4.984375 C 2.753906 -4.910156 2.46875 -4.835938 2.21875 -4.765625 C 2.269531 -3.878906 2.472656 -3.164062 2.828125 -2.625 C 3.179688 -2.09375 3.597656 -1.679688 4.078125 -1.390625 C 4.554688 -1.097656 5.0625 -0.90625 5.59375 -0.8125 C 6.132812 -0.71875 6.617188 -0.671875 7.046875 -0.671875 C 7.273438 -0.671875 7.550781 -0.679688 7.875 -0.703125 C 8.207031 -0.734375 8.523438 -0.769531 8.828125 -0.8125 C 9.128906 -0.851562 9.394531 -0.890625 9.625 -0.921875 L 9.953125 -0.96875 Z M 10.03125 -0.984375 "/></g></g></g><g fill="#6d5133" fill-opacity="1"><g transform="translate(273.037643, 255.465804)"><g><path d="M 8.40625 -11.21875 C 8.53125 -11.1875 8.632812 -11.101562 8.71875 -10.96875 C 8.8125 -10.84375 8.847656 -10.679688 8.828125 -10.484375 C 8.753906 -10.179688 8.507812 -10.03125 8.09375 -10.03125 C 8.09375 -10.050781 7.828125 -10.101562 7.296875 -10.1875 C 6.773438 -10.269531 6.066406 -10.316406 5.171875 -10.328125 C 5.222656 -9.515625 5.25 -8.84375 5.25 -8.3125 C 5.25 -8.039062 5.265625 -7.65625 5.296875 -7.15625 C 5.328125 -6.65625 5.367188 -6.109375 5.421875 -5.515625 C 5.472656 -4.921875 5.523438 -4.3125 5.578125 -3.6875 C 5.640625 -3.0625 5.695312 -2.492188 5.75 -1.984375 C 5.8125 -1.472656 5.859375 -1.050781 5.890625 -0.71875 C 5.929688 -0.382812 5.953125 -0.207031 5.953125 -0.1875 C 5.953125 -0.03125 5.894531 0.0976562 5.78125 0.203125 C 5.675781 0.304688 5.53125 0.375 5.34375 0.40625 C 5.1875 0.40625 5.050781 0.351562 4.9375 0.25 C 4.820312 0.15625 4.757812 0.03125 4.75 -0.125 C 4.75 -0.164062 4.726562 -0.359375 4.6875 -0.703125 C 4.644531 -1.046875 4.597656 -1.472656 4.546875 -1.984375 C 4.492188 -2.492188 4.4375 -3.054688 4.375 -3.671875 C 4.320312 -4.285156 4.269531 -4.890625 4.21875 -5.484375 C 4.164062 -6.078125 4.125 -6.625 4.09375 -7.125 C 4.0625 -7.632812 4.046875 -8.03125 4.046875 -8.3125 C 4.046875 -8.851562 4.019531 -9.515625 3.96875 -10.296875 C 3.601562 -10.265625 3.238281 -10.226562 2.875 -10.1875 C 2.519531 -10.144531 2.203125 -10.101562 1.921875 -10.0625 C 1.640625 -10.03125 1.410156 -10 1.234375 -9.96875 C 1.054688 -9.9375 0.953125 -9.921875 0.921875 -9.921875 C 0.773438 -9.921875 0.644531 -9.972656 0.53125 -10.078125 C 0.414062 -10.179688 0.347656 -10.332031 0.328125 -10.53125 C 0.328125 -10.675781 0.375 -10.800781 0.46875 -10.90625 C 0.5625 -11.007812 0.6875 -11.078125 0.84375 -11.109375 C 0.851562 -11.109375 0.945312 -11.125 1.125 -11.15625 C 1.300781 -11.195312 1.53125 -11.234375 1.8125 -11.265625 C 2.09375 -11.304688 2.410156 -11.34375 2.765625 -11.375 C 3.128906 -11.414062 3.503906 -11.445312 3.890625 -11.46875 C 3.859375 -11.875 3.820312 -12.269531 3.78125 -12.65625 C 3.75 -13.050781 3.710938 -13.429688 3.671875 -13.796875 C 3.640625 -14.171875 3.601562 -14.515625 3.5625 -14.828125 C 3.519531 -15.140625 3.476562 -15.410156 3.4375 -15.640625 C 3.4375 -15.785156 3.484375 -15.914062 3.578125 -16.03125 C 3.679688 -16.144531 3.835938 -16.21875 4.046875 -16.25 C 4.179688 -16.25 4.300781 -16.203125 4.40625 -16.109375 C 4.519531 -16.023438 4.59375 -15.90625 4.625 -15.75 C 4.71875 -15.300781 4.804688 -14.691406 4.890625 -13.921875 C 4.984375 -13.148438 5.066406 -12.351562 5.140625 -11.53125 C 5.617188 -11.53125 6.054688 -11.515625 6.453125 -11.484375 C 6.847656 -11.460938 7.1875 -11.429688 7.46875 -11.390625 C 7.75 -11.347656 7.96875 -11.304688 8.125 -11.265625 C 8.289062 -11.234375 8.382812 -11.21875 8.40625 -11.21875 Z M 8.40625 -11.21875 "/></g></g></g></svg>